<?xml version="1.0" encoding="UTF-8"?>
<svg width="96px" height="96px" viewBox="0 0 96 96" version="1.1" xmlns="http://www.w3.org/2000/svg" xmlns:xlink="http://www.w3.org/1999/xlink">
    <title>bottom_left</title>
    <g id="bottom_left" stroke="none" stroke-width="1" fill="none" fill-rule="evenodd">
        <path id="Line" d="M51.8093429,72.3190816 L52.2451306,72.5642122 L60.2451306,77.0642122 L61.0198644,77.5 L60.2451306,77.9357878 L52.2451306,82.4357878 L51.8093429,82.6809184 L51.3190816,81.8093429 L51.7548694,81.5642122 L58.091,78 L20,78 L20,77 L58.091,77 L51.7548694,73.4357878 L51.3190816,73.1906571 L51.8093429,72.3190816 Z" fill="#7ED321" fill-rule="nonzero"></path>
        <polygon id="Combined-Shape" stroke="#F5A623" stroke-linejoin="round" points="48 67.5 32.1297982 75.8434588 35.160737 58.1717294 22.3214741 45.6565412 40.0648991 43.0782706 48 27 55.9351009 43.0782706 73.6785259 45.6565412 60.839263 58.1717294 63.8702018 75.8434588"></polygon>
        <path d="M22.3214741,27 L73.3214741,27 L73.3214741,76 L22.3214741,76 L22.3214741,27 Z" id="Rectangle" stroke="#000000" opacity="0.0626627604" stroke-linejoin="round" stroke-dasharray="2,2"></path>
        <path id="Line" d="M20.5,32.9801356 L20.9357878,33.7548694 L25.4357878,41.7548694 L25.6809184,42.1906571 L24.8093429,42.6809184 L24.5642122,42.2451306 L21,35.908 L21,78 L20,78 L20,35.908 L16.4357878,42.2451306 L16.1906571,42.6809184 L15.3190816,42.1906571 L15.5642122,41.7548694 L20.0642122,33.7548694 L20.5,32.9801356 Z" fill="#D0021B" fill-rule="nonzero"></path>
        <text id="[0,0]" font-family="72-Regular, 72" font-size="11" font-weight="normal" fill="#4A4A4A">
            <tspan x="5.7980957" y="92">[0,0]</tspan>
        </text>
    </g>
</svg>