<?xml version="1.0" encoding="UTF-8"?>
<svg width="96px" height="96px" viewBox="0 0 96 96" version="1.1" xmlns="http://www.w3.org/2000/svg" xmlns:xlink="http://www.w3.org/1999/xlink">
    <title>bottom_left</title>
    <g id="bottom_left" stroke="none" stroke-width="1" fill="none" fill-rule="evenodd">
        <path id="Line" d="M51.8093429,66.3190816 L52.2451306,66.5642122 L60.2451306,71.0642122 L61.0198644,71.5 L60.2451306,71.9357878 L52.2451306,76.4357878 L51.8093429,76.6809184 L51.3190816,75.8093429 L51.7548694,75.5642122 L58.091,72 L20,72 L20,71 L58.091,71 L51.7548694,67.4357878 L51.3190816,67.1906571 L51.8093429,66.3190816 Z" fill="#7ED321" fill-rule="nonzero"></path>
        <polygon id="Combined-Shape" stroke="#F5A623" stroke-linejoin="round" points="48 61.5 32.1297982 69.8434588 35.160737 52.1717294 22.3214741 39.6565412 40.0648991 37.0782706 48 21 55.9351009 37.0782706 73.6785259 39.6565412 60.839263 52.1717294 63.8702018 69.8434588"></polygon>
        <path d="M22.3214741,21 L73.3214741,21 L73.3214741,70 L22.3214741,70 L22.3214741,21 Z" id="Rectangle" stroke="#000000" opacity="0.0626627604" stroke-linejoin="round" stroke-dasharray="2,2"></path>
        <path id="Line" d="M20.5,26.9801356 L20.9357878,27.7548694 L25.4357878,35.7548694 L25.6809184,36.1906571 L24.8093429,36.6809184 L24.5642122,36.2451306 L21,29.908 L21,72 L20,72 L20,29.908 L16.4357878,36.2451306 L16.1906571,36.6809184 L15.3190816,36.1906571 L15.5642122,35.7548694 L20.0642122,27.7548694 L20.5,26.9801356 Z" fill="#D0021B" fill-rule="nonzero"></path>
        <text id="[0,0]" font-family="72-Regular, 72" font-size="11" font-weight="normal" fill="#4A4A4A">
            <tspan x="9.7980957" y="84">[0,0]</tspan>
        </text>
    </g>
</svg>