<?xml version="1.0" encoding="UTF-8"?>
<svg width="96px" height="96px" viewBox="0 0 96 96" version="1.1" xmlns="http://www.w3.org/2000/svg" xmlns:xlink="http://www.w3.org/1999/xlink">
    <title>rotate</title>
    <g id="rotate" stroke="none" stroke-width="1" fill="none" fill-rule="evenodd">
        <g id="Group" transform="translate(28.321474, 29.000000)" stroke-linejoin="round">
            <polygon id="Combined-Shape" stroke="#F5A623" points="20.1785259 31.5088251 8.12686316 38 10.4285259 24.2514708 0.67852594 14.5147084 14.1526945 12.5088251 20.1785259 0 26.2043573 12.5088251 39.6785259 14.5147084 29.9285259 24.2514708 32.2301887 38"></polygon>
            <path d="M0.67852594,0 L38.6785259,0 L38.6785259,38 L0.67852594,38 L0.67852594,0 Z" id="Rectangle" stroke="#000000" opacity="0.0626627604" stroke-dasharray="2,2"></path>
        </g>
        <path id="Path" d="M57.0486735,16.7409344 L56.47506,20.7814093 C68.2768096,24.4501297 76.5,35.4195546 76.5,48 C76.5,63.7401154 63.7401154,76.5 48,76.5 C32.4172858,76.5 19.7554957,63.9940371 19.5038182,48.4712996 L19.5,48 L20.5,48 C20.5,63.1878306 32.8121694,75.5 48,75.5 C63.1878306,75.5 75.5,63.1878306 75.5,48 C75.5,35.9156909 67.6364314,25.3715363 56.3318891,21.7846019 L55.7821572,25.6513741 L47.5049756,19.929638 L57.0486735,16.7409344 Z" fill="#4A4A4A" fill-rule="nonzero"></path>
    </g>
</svg>