<?xml version="1.0" encoding="UTF-8"?>
<svg width="96px" height="96px" viewBox="0 0 96 96" version="1.1" xmlns="http://www.w3.org/2000/svg" xmlns:xlink="http://www.w3.org/1999/xlink">
    <title>smooth</title>
    <g id="smooth" stroke="none" stroke-width="1" fill="none" fill-rule="evenodd">
        <polygon id="Combined-Shape" stroke="#F5A623" stroke-linejoin="round" points="48 61.5 32.1297982 69.8434588 35.160737 52.1717294 28.0086581 45.2001755 26.1228027 44.0117188 25.1748842 42.4379286 23.3929223 40.7009451 22.3214741 39.6565412 25.4002758 39.2091651 26.5146292 38.6766945 29.0410156 40.7009451 32.1297982 38.6766945 34.4726562 37.0782706 37.0270996 37.8056524 40.0648991 37.0782706 40.6762695 34.9055176 41.6923828 33.6865234 43.6292121 31.8041992 43.6292121 29.8561835 43.6292121 26.8411526 46.1139519 24.8215508 48 21 48.7491449 22.5179334 50.8827811 23.9287109 49.9018468 25.9643555 50.8827811 26.8411526 51.7359554 28.5698724 52.9559305 29.8561835 52.9559305 31.0418119 53.4086914 32.6882324 54.6477515 34.4698158 55.9351009 37.0782706 57.7055664 38.129494 61.4240723 37.0782706 63.1695252 38.129494 65.3266602 37.3829994 66.9353096 38.6766945 68.8561477 39.365749 71.6773208 39.365749 73.6785259 39.6565412 71.9846192 41.3076922 71.1108398 42.4379286 68.8561477 44.3571982 67.4775391 45.4217294 60.839263 52.1717294 63.8702018 69.8434588"></polygon>
        <path d="M22.3214741,21 L73.3214741,21 L73.3214741,70 L22.3214741,70 L22.3214741,21 Z" id="Rectangle" stroke="#000000" opacity="0.0626627604" stroke-linejoin="round" stroke-dasharray="2,2"></path>
        <g id="Group" transform="translate(14.000000, 47.000000)" stroke-linecap="square">
            <line x1="0.5" y1="1.5" x2="67.5" y2="1.5" id="Line" stroke="#D0021B"></line>
            <line x1="0.5" y1="0.5" x2="67.5" y2="0.5" id="Line" stroke="#FFFFFF" stroke-width="2"></line>
            <line x1="0.5" y1="3" x2="67.5" y2="3" id="Line" stroke="#FFFFFF" stroke-width="2"></line>
        </g>
    </g>
</svg>