<?xml version="1.0" encoding="UTF-8"?>
<svg width="96px" height="96px" viewBox="0 0 96 96" version="1.1" xmlns="http://www.w3.org/2000/svg" xmlns:xlink="http://www.w3.org/1999/xlink">
    <title>to_calligraphy</title>
    <g id="to_calligraphy" stroke="none" stroke-width="1" fill="none" fill-rule="evenodd">
        <path d="M41.3491211,38.646 C40.9516849,39.4471042 36.4861665,40.1342111 27.952566,40.7073207 L27.8699661,40.7268191 C27.5285261,40.8378616 27.4058218,41.2810962 27.6705751,41.5514561 C33.9575693,46.671458 37.2270443,50.010306 37.479,51.568 C37.7309557,53.125694 36.958982,57.8422242 35.1630788,65.7175907 L35.1561493,65.7984272 C35.1535833,66.1681105 35.5566866,66.4241733 35.8977266,66.2363401 L47.999,59.57 L60.1022734,66.2363401 L60.1761329,66.2699161 C60.5236526,66.3960207 60.8998263,66.1018204 60.8369212,65.7175907 C58.9713305,57.3495576 58.1990234,52.6330273 58.52,51.568 C58.8409766,50.5029727 62.1107848,47.1641247 68.3294249,41.5514561 L68.3837206,41.4862265 C68.5898635,41.192259 68.4215272,40.7642681 68.047434,40.7073207 C59.8690014,40.1084949 55.3568568,39.421388 54.511,38.646 C53.6651432,37.870612 51.6455835,33.5842498 48.4523208,25.7869133 C48.2721023,25.4043622 47.7278977,25.4043622 47.5476792,25.7869133 C43.8127433,33.5585336 41.7465573,37.8448958 41.3491211,38.646 Z M48,27.173 C50.9261068,35.236438 52.6872559,39.7478782 53.2834473,40.7073207 C53.8796387,41.6667631 58.4288229,41.9469896 66.931,41.548 L56.9155273,50.3359375 C56.8464023,50.4401038 56.407959,50.973877 56.407959,51.921875 C56.407959,52.5538737 57.4999727,56.8679154 59.684,64.864 L48.4523208,58.0351562 C48.3240121,57.9954546 47.2810293,57.9689869 47.1608887,58.0351562 L36.315,64.864 C37.3968732,61.6047409 38.2100861,58.3130788 38.7546387,54.9890137 C39.1576292,52.5290733 39.6291504,51.232666 38.7546387,49.9719238 C38.1716309,49.131429 34.9427513,46.3234544 29.068,41.548 C37.6670352,41.082664 42.3173014,40.4170058 43.0187988,39.5510254 C43.7202962,38.685045 45.3806966,34.5590365 48,27.173 Z" id="Combined-Shape" fill="#F5A623" fill-rule="nonzero"></path>
        <rect id="Rectangle" stroke="#000000" x="16" y="11" width="63" height="71" rx="3"></rect>
        <text id="calligraph" font-family="Verdana" font-size="10" font-weight="normal" fill="#000000">
            <tspan x="28" y="79">calligraph</tspan>
        </text>
    </g>
</svg>