<?xml version="1.0" encoding="UTF-8"?>
<svg width="96px" height="96px" viewBox="0 0 96 96" version="1.1" xmlns="http://www.w3.org/2000/svg" xmlns:xlink="http://www.w3.org/1999/xlink">
    <title>to_calligraphy</title>
    <g id="to_calligraphy" stroke="none" stroke-width="1" fill="none" fill-rule="evenodd">
        <path d="M41.3491211,38.646 C40.9516849,39.4471042 36.4861665,40.1342111 27.952566,40.7073207 L27.8699661,40.7268191 C27.5285261,40.8378616 27.4058218,41.2810962 27.6705751,41.5514561 C33.9575693,46.671458 37.2270443,50.010306 37.479,51.568 C37.7309557,53.125694 36.958982,57.8422242 35.1630788,65.7175907 L35.1561493,65.7984272 C35.1535833,66.1681105 35.5566866,66.4241733 35.8977266,66.2363401 L47.999,59.57 L60.1022734,66.2363401 L60.1761329,66.2699161 C60.5236526,66.3960207 60.8998263,66.1018204 60.8369212,65.7175907 C58.9713305,57.3495576 58.1990234,52.6330273 58.52,51.568 C58.8409766,50.5029727 62.1107848,47.1641247 68.3294249,41.5514561 L68.3837206,41.4862265 C68.5898635,41.192259 68.4215272,40.7642681 68.047434,40.7073207 C59.8690014,40.1084949 55.3568568,39.421388 54.511,38.646 C53.6651432,37.870612 51.6455835,33.5842498 48.4523208,25.7869133 C48.2721023,25.4043622 47.7278977,25.4043622 47.5476792,25.7869133 C43.8127433,33.5585336 41.7465573,37.8448958 41.3491211,38.646 Z M48,27.173 C50.5268555,36.0835758 52.0883789,41.0185849 52.6845703,41.9780273 C53.2807617,42.9374698 58.0295716,42.7941274 66.931,41.548 C59.2292786,46.4667604 55.2484538,49.458166 54.9885254,50.5222168 C54.728597,51.5862676 56.2937552,56.366862 59.684,64.864 L48.4523208,58.0351562 C48.3240121,57.9954546 47.2810293,57.9689869 47.1608887,58.0351562 L36.315,64.864 C39.7540885,55.7909297 41.1821289,50.8341471 40.5991211,49.9936523 C40.0161133,49.1531576 36.1724063,46.3379401 29.068,41.548 C37.8708112,42.372798 42.6229655,42.3522068 43.3244629,41.4862265 C44.0259603,40.6202461 45.5844727,35.8491706 48,27.173 Z" id="Combined-Shape" fill="#F5A623" fill-rule="nonzero"></path>
        <rect id="Rectangle" stroke="#000000" x="16" y="11" width="63" height="71" rx="3"></rect>
        <text id="calligraph" font-family="Verdana" font-size="10" font-weight="normal" fill="#000000">
            <tspan x="28" y="79">calligraph</tspan>
        </text>
    </g>
</svg>