<?xml version="1.0" encoding="UTF-8"?>
<svg width="96px" height="96px" viewBox="0 0 96 96" version="1.1" xmlns="http://www.w3.org/2000/svg" xmlns:xlink="http://www.w3.org/1999/xlink">
    <title>to_halftone_dots</title>
    <g id="to_halftone_dots" stroke="none" stroke-width="1" fill="none" fill-rule="evenodd">
        <circle id="Oval" fill="#F5A623" cx="32" cy="17" r="1"></circle>
        <circle id="Oval" fill="#F5A623" cx="37" cy="17" r="1"></circle>
        <circle id="Oval" fill="#F5A623" cx="47" cy="17" r="2"></circle>
        <circle id="Oval" fill="#F5A623" cx="57" cy="17" r="1"></circle>
        <circle id="Oval" fill="#F5A623" cx="62" cy="17" r="1"></circle>
        <circle id="Oval" fill="#F5A623" cx="67" cy="17" r="1"></circle>
        <circle id="Oval" fill="#F5A623" cx="32" cy="22" r="1"></circle>
        <circle id="Oval" fill="#F5A623" cx="37" cy="22" r="1"></circle>
        <circle id="Oval" fill="#F5A623" cx="47" cy="22" r="2"></circle>
        <circle id="Oval" fill="#F5A623" cx="57" cy="22" r="1"></circle>
        <circle id="Oval" fill="#F5A623" cx="62" cy="22" r="1"></circle>
        <circle id="Oval" fill="#F5A623" cx="67" cy="22" r="1"></circle>
        <circle id="Oval" fill="#F5A623" cx="32" cy="17" r="1"></circle>
        <circle id="Oval" fill="#F5A623" cx="37" cy="17" r="1"></circle>
        <circle id="Oval" fill="#F5A623" cx="42" cy="17" r="1"></circle>
        <circle id="Oval" fill="#F5A623" cx="47" cy="17" r="2"></circle>
        <circle id="Oval" fill="#F5A623" cx="52" cy="17" r="1"></circle>
        <circle id="Oval" fill="#F5A623" cx="57" cy="17" r="1"></circle>
        <circle id="Oval" fill="#F5A623" cx="62" cy="17" r="1"></circle>
        <circle id="Oval" fill="#F5A623" cx="67" cy="17" r="1"></circle>
        <circle id="Oval" fill="#F5A623" cx="32" cy="22" r="1"></circle>
        <circle id="Oval" fill="#F5A623" cx="37" cy="22" r="1"></circle>
        <circle id="Oval" fill="#F5A623" cx="42" cy="22" r="1"></circle>
        <circle id="Oval" fill="#F5A623" cx="47" cy="22" r="2"></circle>
        <circle id="Oval" fill="#F5A623" cx="52" cy="22" r="1.5"></circle>
        <circle id="Oval" fill="#F5A623" cx="57" cy="22" r="1"></circle>
        <circle id="Oval" fill="#F5A623" cx="62" cy="22" r="1"></circle>
        <circle id="Oval" fill="#F5A623" cx="67" cy="22" r="1"></circle>
        <circle id="Oval" fill="#F5A623" cx="32" cy="27" r="1"></circle>
        <circle id="Oval" fill="#F5A623" cx="37" cy="27" r="1"></circle>
        <circle id="Oval" fill="#F5A623" cx="42" cy="27" r="2"></circle>
        <circle id="Oval" fill="#F5A623" cx="47" cy="27" r="1"></circle>
        <circle id="Oval" fill="#F5A623" cx="52" cy="27" r="1.5"></circle>
        <circle id="Oval" fill="#F5A623" cx="57" cy="27" r="1"></circle>
        <circle id="Oval" fill="#F5A623" cx="62" cy="27" r="1"></circle>
        <circle id="Oval" fill="#F5A623" cx="67" cy="27" r="1"></circle>
        <circle id="Oval" fill="#F5A623" cx="32" cy="32" r="2"></circle>
        <circle id="Oval" fill="#F5A623" cx="37" cy="32" r="2"></circle>
        <circle id="Oval" fill="#F5A623" cx="42" cy="32" r="2"></circle>
        <circle id="Oval" fill="#F5A623" cx="47" cy="32" r="1"></circle>
        <circle id="Oval" fill="#F5A623" cx="52" cy="32" r="1"></circle>
        <circle id="Oval" fill="#F5A623" cx="57" cy="32" r="2"></circle>
        <circle id="Oval" fill="#F5A623" cx="62" cy="32" r="2"></circle>
        <circle id="Oval" fill="#F5A623" cx="67" cy="32" r="2"></circle>
        <circle id="Oval" fill="#F5A623" cx="32" cy="37" r="1"></circle>
        <circle id="Oval" fill="#F5A623" cx="37" cy="37" r="1"></circle>
        <circle id="Oval" fill="#F5A623" cx="42" cy="37" r="1"></circle>
        <circle id="Oval" fill="#F5A623" cx="47" cy="37" r="1"></circle>
        <circle id="Oval" fill="#F5A623" cx="52" cy="37" r="1"></circle>
        <circle id="Oval" fill="#F5A623" cx="57" cy="37" r="1"></circle>
        <circle id="Oval" fill="#F5A623" cx="62" cy="37" r="1"></circle>
        <circle id="Oval" fill="#F5A623" cx="67" cy="37" r="1"></circle>
        <circle id="Oval" fill="#F5A623" cx="32" cy="42" r="2"></circle>
        <circle id="Oval" fill="#F5A623" cx="37" cy="42" r="1"></circle>
        <circle id="Oval" fill="#F5A623" cx="42" cy="42" r="1"></circle>
        <circle id="Oval" fill="#F5A623" cx="47" cy="42" r="1"></circle>
        <circle id="Oval" fill="#F5A623" cx="52" cy="42" r="1"></circle>
        <circle id="Oval" fill="#F5A623" cx="57" cy="42" r="1"></circle>
        <circle id="Oval" fill="#F5A623" cx="62" cy="42" r="1"></circle>
        <circle id="Oval" fill="#F5A623" cx="67" cy="42" r="2"></circle>
        <circle id="Oval" fill="#F5A623" cx="32" cy="47" r="1"></circle>
        <circle id="Oval" fill="#F5A623" cx="37" cy="47" r="2"></circle>
        <circle id="Oval" fill="#F5A623" cx="42" cy="47" r="1"></circle>
        <circle id="Oval" fill="#F5A623" cx="47" cy="47" r="1"></circle>
        <circle id="Oval" fill="#F5A623" cx="52" cy="47" r="1"></circle>
        <circle id="Oval" fill="#F5A623" cx="57" cy="47" r="1"></circle>
        <circle id="Oval" fill="#F5A623" cx="62" cy="47" r="2"></circle>
        <circle id="Oval" fill="#F5A623" cx="67" cy="47" r="1"></circle>
        <circle id="Oval" fill="#F5A623" cx="32.5" cy="52.5" r="1.5"></circle>
        <circle id="Oval" fill="#F5A623" cx="37.5" cy="52.5" r="1.5"></circle>
        <circle id="Oval" fill="#F5A623" cx="42" cy="52" r="1"></circle>
        <circle id="Oval" fill="#F5A623" cx="47" cy="52" r="1"></circle>
        <circle id="Oval" fill="#F5A623" cx="52" cy="52" r="1"></circle>
        <circle id="Oval" fill="#F5A623" cx="57" cy="52" r="1"></circle>
        <circle id="Oval" fill="#F5A623" cx="62" cy="52" r="2"></circle>
        <circle id="Oval" fill="#F5A623" cx="67" cy="52" r="1"></circle>
        <circle id="Oval" fill="#F5A623" cx="32" cy="57" r="2"></circle>
        <circle id="Oval" fill="#F5A623" cx="37" cy="57" r="1"></circle>
        <circle id="Oval" fill="#F5A623" cx="42.5" cy="57.5" r="1.5"></circle>
        <circle id="Oval" fill="#F5A623" cx="47" cy="57" r="2"></circle>
        <circle id="Oval" fill="#F5A623" cx="52" cy="57" r="1.5"></circle>
        <circle id="Oval" fill="#F5A623" cx="57" cy="57" r="1"></circle>
        <circle id="Oval" fill="#F5A623" cx="62" cy="57" r="2"></circle>
        <circle id="Oval" fill="#F5A623" cx="67" cy="57" r="1"></circle>
        <circle id="Oval" fill="#F5A623" cx="32" cy="62" r="2"></circle>
        <circle id="Oval" fill="#F5A623" cx="37" cy="62" r="2"></circle>
        <circle id="Oval" fill="#F5A623" cx="22" cy="17" r="1"></circle>
        <circle id="Oval" fill="#F5A623" cx="27" cy="17" r="1"></circle>
        <circle id="Oval" fill="#F5A623" cx="22" cy="22" r="1"></circle>
        <circle id="Oval" fill="#F5A623" cx="27" cy="22" r="1"></circle>
        <circle id="Oval" fill="#F5A623" cx="22" cy="17" r="1"></circle>
        <circle id="Oval" fill="#F5A623" cx="27" cy="17" r="1"></circle>
        <circle id="Oval" fill="#F5A623" cx="22" cy="22" r="1"></circle>
        <circle id="Oval" fill="#F5A623" cx="27" cy="22" r="1"></circle>
        <circle id="Oval" fill="#F5A623" cx="22" cy="27" r="1"></circle>
        <circle id="Oval" fill="#F5A623" cx="27" cy="27" r="1"></circle>
        <circle id="Oval" fill="#F5A623" cx="22" cy="32" r="1"></circle>
        <circle id="Oval" fill="#F5A623" cx="27" cy="32" r="2"></circle>
        <circle id="Oval" fill="#F5A623" cx="22" cy="37" r="2"></circle>
        <circle id="Oval" fill="#F5A623" cx="27" cy="37" r="1.5"></circle>
        <circle id="Oval" fill="#F5A623" cx="22" cy="42" r="1"></circle>
        <circle id="Oval" fill="#F5A623" cx="27" cy="42" r="1.5"></circle>
        <circle id="Oval" fill="#F5A623" cx="22" cy="47" r="1"></circle>
        <circle id="Oval" fill="#F5A623" cx="27" cy="47" r="1"></circle>
        <circle id="Oval" fill="#F5A623" cx="22" cy="52" r="1"></circle>
        <circle id="Oval" fill="#F5A623" cx="27" cy="52" r="1"></circle>
        <circle id="Oval" fill="#F5A623" cx="22" cy="57" r="1"></circle>
        <circle id="Oval" fill="#F5A623" cx="27" cy="57" r="1"></circle>
        <circle id="Oval" fill="#F5A623" cx="22" cy="62" r="1"></circle>
        <circle id="Oval" fill="#F5A623" cx="27" cy="62" r="1"></circle>
        <circle id="Oval" fill="#F5A623" cx="42" cy="62" r="1.5"></circle>
        <circle id="Oval" fill="#F5A623" cx="47" cy="62" r="1"></circle>
        <circle id="Oval" fill="#F5A623" cx="52" cy="62" r="1"></circle>
        <circle id="Oval" fill="#F5A623" cx="57" cy="62" r="2"></circle>
        <circle id="Oval" fill="#F5A623" cx="62" cy="62" r="2"></circle>
        <circle id="Oval" fill="#F5A623" cx="67" cy="62" r="1"></circle>
        <circle id="Oval" fill="#F5A623" cx="72" cy="17" r="1"></circle>
        <circle id="Oval" fill="#F5A623" cx="72" cy="22" r="1"></circle>
        <circle id="Oval" fill="#F5A623" cx="72" cy="17" r="1"></circle>
        <circle id="Oval" fill="#F5A623" cx="72" cy="22" r="1"></circle>
        <circle id="Oval" fill="#F5A623" cx="72" cy="27" r="1"></circle>
        <circle id="Oval" fill="#F5A623" cx="72.5" cy="32.5" r="1.5"></circle>
        <circle id="Oval" fill="#F5A623" cx="72" cy="37" r="2"></circle>
        <circle id="Oval" fill="#F5A623" cx="72" cy="42" r="1"></circle>
        <circle id="Oval" fill="#F5A623" cx="72" cy="47" r="1"></circle>
        <circle id="Oval" fill="#F5A623" cx="72" cy="52" r="1"></circle>
        <circle id="Oval" fill="#F5A623" cx="72" cy="57" r="1"></circle>
        <circle id="Oval" fill="#F5A623" cx="72" cy="62" r="1"></circle>
        <circle id="Oval" fill="#F5A623" cx="32" cy="67" r="2"></circle>
        <circle id="Oval" fill="#F5A623" cx="37" cy="67" r="1"></circle>
        <circle id="Oval" fill="#F5A623" cx="22" cy="67" r="1"></circle>
        <circle id="Oval" fill="#F5A623" cx="27" cy="67" r="1"></circle>
        <circle id="Oval" fill="#F5A623" cx="42" cy="67" r="1"></circle>
        <circle id="Oval" fill="#F5A623" cx="47" cy="67" r="1"></circle>
        <circle id="Oval" fill="#F5A623" cx="52" cy="67" r="1"></circle>
        <circle id="Oval" fill="#F5A623" cx="57" cy="67" r="1"></circle>
        <circle id="Oval" fill="#F5A623" cx="62" cy="67" r="1"></circle>
        <circle id="Oval" fill="#F5A623" cx="67" cy="67" r="1"></circle>
        <circle id="Oval" fill="#F5A623" cx="72" cy="67" r="1"></circle>
        <rect id="Rectangle" stroke="#000000" x="16" y="11" width="63" height="71" rx="3"></rect>
        <text id="dots" font-family="Verdana" font-size="10" font-weight="normal" fill="#000000">
            <tspan x="55" y="78">dots</tspan>
        </text>
    </g>
</svg>