<?xml version="1.0" encoding="UTF-8"?>
<svg width="151px" height="116px" viewBox="0 0 151 116" version="1.1" xmlns="http://www.w3.org/2000/svg" xmlns:xlink="http://www.w3.org/1999/xlink">
    <title>start-probe</title>
    <defs>
        <radialGradient cx="48.7573181%" cy="68.6772245%" fx="48.7573181%" fy="68.6772245%" r="127.888815%" gradientTransform="translate(0.487573,0.686772),scale(0.418033,1.000000),rotate(172.044403),translate(-0.487573,-0.686772)" id="radialGradient-1">
            <stop stop-color="#FDD341" offset="0%"></stop>
            <stop stop-color="#FAA841" offset="100%"></stop>
        </radialGradient>
        <linearGradient x1="72.7686761%" y1="50%" x2="14.5676137%" y2="53.4837841%" id="linearGradient-2">
            <stop stop-color="#14BFF2" offset="0%"></stop>
            <stop stop-color="#04AFF1" offset="100%"></stop>
        </linearGradient>
        <linearGradient x1="28.6743164%" y1="51.9539388%" x2="117.39502%" y2="51.9539388%" id="linearGradient-3">
            <stop stop-color="#CFCFD3" offset="0%"></stop>
            <stop stop-color="#4A4A4A" offset="100%"></stop>
        </linearGradient>
    </defs>
    <g id="start-probe" stroke="none" stroke-width="1" fill="none" fill-rule="evenodd">
        <polygon id="Rectangle" stroke="#4A4A4A" fill="url(#radialGradient-1)" stroke-linejoin="round" points="77.9520156 57 137 57.3907152 137 73.3147905 75.4842631 108 15 73.3147905 15 57.3907152"></polygon>
        <polygon id="Rectangle" stroke="#4A4A4A" fill="url(#linearGradient-2)" stroke-linejoin="round" points="76 22 137 57.3898695 75.4842631 92 15 57.3898695"></polygon>
        <line x1="75.5" y1="92.5" x2="75.5" y2="108.5" id="Line" stroke="#4A4A4A" stroke-linecap="round" stroke-linejoin="round"></line>
        <g id="Group" transform="translate(76.000000, 8.000000)">
            <ellipse id="Oval" fill="#4A4A4A" cx="2.25" cy="1" rx="2.25" ry="1"></ellipse>
            <path d="M0.3,1 C0.966666667,1.42057292 1.63333333,1.63085937 2.3,1.63085937 C2.96666667,1.63085937 3.63333333,1.42057292 4.3,1 L4.3,31 C3.63333333,31.4384766 2.96666667,31.6577148 2.3,31.6577148 C1.63333333,31.6577148 0.966666667,31.4384766 0.3,31 L0.3,1 Z" id="Rectangle" stroke="#4A4A4A" stroke-width="0.5" fill="url(#linearGradient-3)" stroke-linejoin="round"></path>
        </g>
        <line x1="78.5" y1="42" x2="78.5" y2="63" id="Line-7" stroke="#E53C39" stroke-width="0.5" stroke-linecap="square"></line>
        <path id="Line-8" d="M100.5,9 L105,18 L101,18 L101,34 L105,34 L100.5,43 L96,34 L100,34 L100,18 L96,18 L100.5,9 Z" fill="#F5A623" fill-rule="nonzero"></path>
    </g>
</svg>