<?xml version="1.0" encoding="UTF-8"?>
<svg width="151px" height="116px" viewBox="0 0 151 116" version="1.1" xmlns="http://www.w3.org/2000/svg" xmlns:xlink="http://www.w3.org/1999/xlink">
    <title>start-pendant</title>
    <defs>
        <radialGradient cx="48.7573181%" cy="68.6772245%" fx="48.7573181%" fy="68.6772245%" r="127.888815%" gradientTransform="translate(0.487573,0.686772),scale(0.418033,1.000000),rotate(172.044403),translate(-0.487573,-0.686772)" id="radialGradient-1">
            <stop stop-color="#FDD341" offset="0%"></stop>
            <stop stop-color="#FAA841" offset="100%"></stop>
        </radialGradient>
        <linearGradient x1="72.7686761%" y1="50%" x2="14.5676137%" y2="53.4837841%" id="linearGradient-2">
            <stop stop-color="#14BFF2" offset="0%"></stop>
            <stop stop-color="#04AFF1" offset="100%"></stop>
        </linearGradient>
        <linearGradient x1="28.6743164%" y1="51.9539388%" x2="117.39502%" y2="51.9539388%" id="linearGradient-3">
            <stop stop-color="#CFCFD3" offset="0%"></stop>
            <stop stop-color="#4A4A4A" offset="100%"></stop>
        </linearGradient>
    </defs>
    <g id="start-pendant" stroke="none" stroke-width="1" fill="none" fill-rule="evenodd">
        <polygon id="Rectangle" stroke="#4A4A4A" fill="url(#radialGradient-1)" stroke-linejoin="round" points="77.9520156 57 137 57.3907152 137 73.3147905 75.4842631 108 15 73.3147905 15 57.3907152"></polygon>
        <polygon id="Rectangle" stroke="#4A4A4A" fill="url(#linearGradient-2)" stroke-linejoin="round" points="76 22 137 57.3898695 75.4842631 92 15 57.3898695"></polygon>
        <ellipse id="Oval" stroke="#E53C39" cx="77" cy="55.5" rx="15" ry="7.5"></ellipse>
        <ellipse id="Oval" stroke="#E53C39" cx="77" cy="55" rx="10" ry="4"></ellipse>
        <line x1="55.5" y1="42.5" x2="97.5" y2="66.5" id="Line-2" stroke="#E53C39" stroke-linecap="square"></line>
        <line x1="97.5" y1="42.5" x2="53.5" y2="68.5" id="Line-3" stroke="#E53C39" stroke-linecap="square"></line>
        <line x1="75.5" y1="92.5" x2="75.5" y2="108.5" id="Line" stroke="#4A4A4A" stroke-linecap="round" stroke-linejoin="round"></line>
        <polygon id="Line-8" fill="#F5A623" fill-rule="nonzero" transform="translate(110.422165, 36.767912) rotate(-2.000000) translate(-110.422165, -36.767912) " points="84 20 94.1853483 23.5179122 92.2335661 24.5896896 127.594284 46.9048751 130.357824 45.2751456 136.844329 53.5358244 122.505417 49.3643478 126.536667 47.4002364 91.2576139 25.2679122 88.4540251 26.8885177"></polygon>
        <polygon id="Line-8" fill="#F5A623" fill-rule="nonzero" transform="translate(41.213030, 36.365440) rotate(2.000000) translate(-41.213030, -36.365440) " points="69.4260609 19 65.0655567 25.3195214 62.2873535 23.6715545 22.2490234 47.9371795 25.2253418 49.707199 13 53.7308807 18.5180664 45.7096405 21.3024902 47.2474823 61.4513145 23.2002479 58.4191895 21.6107635"></polygon>
        <g id="Group" transform="translate(74.000000, 20.000000)">
            <ellipse id="Oval" fill="#4A4A4A" cx="2.25" cy="1" rx="2.25" ry="1"></ellipse>
            <path d="M0.3,1 C0.966666667,1.42057292 1.63333333,1.63085937 2.3,1.63085937 C2.96666667,1.63085937 3.63333333,1.42057292 4.3,1 L4.3,31 L2.25,34.5 L0.3,31 L0.3,1 Z" id="Rectangle" stroke="#4A4A4A" stroke-width="0.5" fill="url(#linearGradient-3)" stroke-linejoin="round"></path>
        </g>
    </g>
</svg>