<?xml version="1.0" encoding="UTF-8"?>
<svg width="96px" height="96px" viewBox="0 0 96 96" version="1.1" xmlns="http://www.w3.org/2000/svg" xmlns:xlink="http://www.w3.org/1999/xlink">
    <title>pipeline_mill_outline</title>
    <defs>
        <path d="M22.3262191,30 L71.4395557,30 C72.3506417,30 73.1465842,30.6157561 73.3754344,31.4976321 L86.3506259,81.4976321 C86.6280761,82.5667884 85.9862714,83.6584286 84.9171152,83.9358787 C84.7530528,83.9784535 84.5842437,84 84.4147472,84 L11.4803472,84 C10.3757777,84 9.4803472,83.1045695 9.4803472,82 C9.4803472,81.857459 9.49558552,81.7153265 9.52580241,81.5760252 L20.3716743,31.5760252 C20.5711947,30.6562264 21.3850294,30 22.3262191,30 Z" id="path-1"></path>
        <rect id="path-2" x="25" y="3" width="46" height="10" rx="1"></rect>
    </defs>
    <g id="pipeline_mill_outline" stroke="none" stroke-width="1" fill="none" fill-rule="evenodd">
        <g id="Rectangle">
            <use stroke="#FFFFFF" stroke-width="3" fill="#FFFFFF" fill-rule="evenodd" xlink:href="#path-1"></use>
            <use stroke="#979797" stroke-width="1" xlink:href="#path-1"></use>
        </g>
        <path d="M47.5,61.9003106 L36.9198655,66 L38.9404914,57.3167184 L30.3809827,51.1671843 L42.2099327,49.9003106 L47.5,42" id="Path" stroke="#00ACC1" opacity="0.357003348" stroke-linejoin="round" stroke-dasharray="2,1"></path>
        <path d="M57.463623,64.6643066 L55.4800349,57.1259214 C55.3708182,56.7108568 55.5386401,56.2723866 55.8970759,56.0363133 L64.0945456,50.6372876 L64.0945456,50.6372876 L51.8435059,49.5683594 L46.5,42.4294434 L47.5,41.3034668 L52.6508789,48 L65.0610252,49.2326295 C65.5644925,49.2826361 65.9929258,49.6208399 66.158458,50.0989394 C66.3180698,50.5599396 66.1436568,51.0704226 65.7353293,51.337379 L57.0739746,57 L57.0739746,57 L58.9809722,64.6332085 C59.0967682,65.0967094 58.9804694,65.5875806 58.6690271,65.9498587 C58.3688897,66.2989866 57.8869492,66.4311144 57.4507262,66.2838655 L46.5,62.5874023 L46.5,62.5874023 L47,61.1386719 L57.463623,64.6643066 Z" id="Path" stroke="#4A4A4A" fill="#EDEAEA" stroke-linejoin="round"></path>
        <g id="Rectangle">
            <use stroke="#FFFFFF" stroke-width="3" fill="#FFFFFF" fill-rule="evenodd" xlink:href="#path-2"></use>
            <use stroke="#4A4A4A" stroke-width="2" xlink:href="#path-2"></use>
        </g>
        <polygon id="Rectangle" stroke="#4A4A4A" stroke-width="2" fill="#FFFFFF" points="39 3 57 3 57 16.4628906 51.9882812 23 47.5 23 42.8798828 23 39 16.4628906"></polygon>
        <circle id="Oval" stroke="#4A4A4A" fill="#D8D8D8" cx="47.5" cy="9.5" r="1.5"></circle>
        <line x1="47" y1="23" x2="47" y2="40" id="Line" stroke="#4A4A4A" stroke-width="2" stroke-linecap="round"></line>
    </g>
</svg>