<?xml version="1.0" encoding="UTF-8"?>
<svg width="96px" height="96px" viewBox="0 0 96 96" version="1.1" xmlns="http://www.w3.org/2000/svg" xmlns:xlink="http://www.w3.org/1999/xlink">
    <title>pipeline_line_hatch</title>
    <defs>
        <path d="M22.3262191,30 L71.4395557,30 C72.3506417,30 73.1465842,30.6157561 73.3754344,31.4976321 L86.3506259,81.4976321 C86.6280761,82.5667884 85.9862714,83.6584286 84.9171152,83.9358787 C84.7530528,83.9784535 84.5842437,84 84.4147472,84 L11.4803472,84 C10.3757777,84 9.4803472,83.1045695 9.4803472,82 C9.4803472,81.857459 9.49558552,81.7153265 9.52580241,81.5760252 L20.3716743,31.5760252 C20.5711947,30.6562264 21.3850294,30 22.3262191,30 Z" id="path-1"></path>
        <polygon id="path-2" points="18.5 18.75 7.91986546 22.6127124 9.94049135 14.4313562 1.38098271 8.63728757 13.2099327 7.44364379 18.5 0 23.7900673 7.44364379 35.6190173 8.63728757 27.0595086 14.4313562 29.0801345 22.6127124"></polygon>
        <rect id="path-4" x="25" y="12" width="46" height="10" rx="1"></rect>
    </defs>
    <g id="pipeline_line_hatch" stroke="none" stroke-width="1" fill="none" fill-rule="evenodd">
        <g id="Rectangle">
            <use stroke="#FFFFFF" stroke-width="3" fill="#FFFFFF" fill-rule="evenodd" xlink:href="#path-1"></use>
            <use stroke="#979797" stroke-width="1" xlink:href="#path-1"></use>
        </g>
        <polygon id="Star" stroke="#000000" opacity="0.809787687" stroke-linejoin="round" points="47.5 60.75 36.9198655 64.6127124 38.9404914 56.4313562 30.3809827 50.6372876 42.2099327 49.4436438 47.5 42 52.7900673 49.4436438 64.6190173 50.6372876 56.0595086 56.4313562 58.0801345 64.6127124"></polygon>
        <g id="lines" transform="translate(29.000000, 42.000000)">
            <mask id="mask-3" fill="white">
                <use xlink:href="#path-2"></use>
            </mask>
            <g id="Mask" opacity="0.809787687"></g>
            <g mask="url(#mask-3)" id="Line-11" stroke="#4A4A4A" stroke-linecap="square">
                <g transform="translate(-3.000000, 10.000000)">
                    <line x1="0.5" y1="0.5" x2="21.5" y2="0.5"></line>
                    <line x1="0.5" y1="2.5" x2="39.5" y2="2.5"></line>
                    <line x1="0.5" y1="4.5" x2="39.5" y2="4.5"></line>
                    <line x1="0.5" y1="6.5" x2="39.5" y2="6.5"></line>
                    <line x1="0.5" y1="8.5" x2="39.5" y2="8.5"></line>
                    <line x1="0.5" y1="10.5" x2="39.5" y2="10.5"></line>
                </g>
            </g>
        </g>
        <g id="Rectangle">
            <use stroke="#FFFFFF" stroke-width="3" fill="#FFFFFF" fill-rule="evenodd" xlink:href="#path-4"></use>
            <use stroke="#4A4A4A" stroke-width="2" xlink:href="#path-4"></use>
        </g>
        <polygon id="Rectangle" stroke="#4A4A4A" stroke-width="2" fill="#FFFFFF" points="39 12 57 12 57 25.4628906 51.9882812 32 47.5 32 42.8798828 32 39 25.4628906"></polygon>
        <circle id="Oval" stroke="#4A4A4A" fill="#D8D8D8" cx="47.5" cy="18.5" r="1.5"></circle>
        <polygon id="Triangle" stroke="#4A4A4A" fill="#4A4A4A" transform="translate(47.500000, 41.170654) scale(1, -1) translate(-47.500000, -41.170654) " points="47.5 33.3413086 49 41.3413086 49 49 46 49 46 41.3413086"></polygon>
    </g>
</svg>