<?xml version="1.0" encoding="UTF-8"?>
<svg width="96px" height="96px" viewBox="0 0 96 96" version="1.1" xmlns="http://www.w3.org/2000/svg" xmlns:xlink="http://www.w3.org/1999/xlink">
    <title>camera</title>
    <g id="camera" stroke="none" stroke-width="1" fill="none" fill-rule="evenodd">
        <polyline id="Line-2" stroke="#4A4A4A" stroke-width="2" stroke-linecap="round" stroke-linejoin="round" points="13.0683594 21.5 13.0683594 10.5 24.0683594 10.5"></polyline>
        <polyline id="Line-2" stroke="#4A4A4A" stroke-width="2" stroke-linecap="round" stroke-linejoin="round" points="25 86 14 86 14 75"></polyline>
        <polyline id="Line-2" stroke="#4A4A4A" stroke-width="2" stroke-linecap="round" stroke-linejoin="round" transform="translate(79.215820, 80.215820) rotate(-90.000000) translate(-79.215820, -80.215820) " points="84.7158203 85.7158203 73.7158203 85.7158203 73.7158203 74.7158203"></polyline>
        <polyline id="Line-2" stroke="#4A4A4A" stroke-width="2" stroke-linecap="round" stroke-linejoin="round" transform="translate(78.931641, 15.500000) rotate(180.000000) translate(-78.931641, -15.500000) " points="84.4316406 21 73.4316406 21 73.4316406 10"></polyline>
        <rect id="Rectangle" stroke="#979797" fill="#FFFFFF" x="26" y="18" width="45" height="63"></rect>
        <polygon id="Star" stroke="#00ACC1" stroke-linejoin="round" points="48.5 57.75 38.8015433 62.8487804 40.6537837 52.0493902 32.8075675 44.4012196 43.6507717 42.8256098 48.5 33 53.3492283 42.8256098 64.1924325 44.4012196 56.3462163 52.0493902 58.1984567 62.8487804"></polygon>
        <line x1="15.5" y1="59.5" x2="82.5" y2="59.5" id="Line" stroke="#D0021B" stroke-linecap="square"></line>
        <line x1="15.5" y1="58.5" x2="82.5" y2="58.5" id="Line" stroke="#FFFFFF" stroke-width="2" stroke-linecap="square"></line>
        <line x1="15.5" y1="61" x2="82.5" y2="61" id="Line" stroke="#FFFFFF" stroke-width="2" stroke-linecap="square"></line>
    </g>
</svg>