<?xml version="1.0" encoding="UTF-8"?>
<svg width="96px" height="96px" viewBox="0 0 96 96" version="1.1" xmlns="http://www.w3.org/2000/svg" xmlns:xlink="http://www.w3.org/1999/xlink">
    <title>depth</title>
    <defs>
        <path d="M22.3262191,18 L71.4395557,18 C72.3506417,18 73.1465842,18.6157561 73.3754344,19.4976321 L86.3506259,69.4976321 C86.6280761,70.5667884 85.9862714,71.6584286 84.9171152,71.9358787 C84.7530528,71.9784535 84.5842437,72 84.4147472,72 L11.4803472,72 C10.3757777,72 9.4803472,71.1045695 9.4803472,70 C9.4803472,69.857459 9.49558552,69.7153265 9.52580241,69.5760252 L20.3716743,19.5760252 C20.5711947,18.6562264 21.3850294,18 22.3262191,18 Z" id="path-1"></path>
    </defs>
    <g id="depth" stroke="none" stroke-width="1" fill="none" fill-rule="evenodd">
        <g id="Rectangle">
            <use stroke="#FFFFFF" stroke-width="3" fill="#FFFFFF" fill-rule="evenodd" xlink:href="#path-1"></use>
            <use stroke="#979797" stroke-width="1" xlink:href="#path-1"></use>
        </g>
        <path d="M86.3955474,70.6037598 L86.3955474,75.866962 C86.4681575,76.969085 85.6440876,77.9220954 84.5549358,77.9955703 C84.5111725,77.9985226 84.4673241,78 84.4234636,78 L11.5764613,78 C10.4848919,78 9.6,77.1045695 9.6,76 C9.6,75.9683661 9.6,74.1696194 9.6,70.6037598" id="Path" stroke="#979797"></path>
        <polyline id="Path" stroke="#4A4A4A" stroke-linejoin="round" points="47.5 30 52.9370136 37.4436438 65.0945456 38.6372876 56.2972728 44.4313562 58.3740272 52.6127124 47.5 48.75"></polyline>
        <path d="M47.5,33 L52.9370136,40.4436438 L65.0945456,41.6372876 L56.2972728,47.4313562 L58.3740272,55.6127124 L47.5,51.75" id="Path" stroke-opacity="0.408462631" stroke="#4A4A4A" stroke-linejoin="round" stroke-dasharray="1,1"></path>
        <line x1="47.5" y1="34" x2="47.5" y2="32" id="Line" stroke="#B5B5B5" stroke-width="2" stroke-linecap="square"></line>
        <path d="M51.3233466,69.1816406 C51.7108149,69.1816406 52.0696507,69.1054687 52.3988909,68.953125 C52.7268469,68.8007813 53.0393534,68.5878906 53.3357823,68.3144531 L53.3507643,69 L54.4091466,69 L54.0867616,59.8828125 L53.1515173,59.8828125 L53.2134938,62.71875 C52.9517897,62.5664062 52.7038061,62.4541016 52.4690751,62.3818359 C52.2348149,62.3095703 51.9668987,62.2734375 51.6649737,62.2734375 C51.33217,62.2734375 51.0098324,62.3515625 50.696945,62.5078125 C50.3827031,62.6640625 50.1045072,62.890625 49.8619229,63.1875 C49.6136988,63.4921875 49.4114319,63.8613281 49.2553709,64.2949219 C49.0976278,64.7285156 49.0083464,65.2226563 48.9887882,65.7773438 C48.951187,66.84375 49.1385567,67.6777344 49.5559753,68.2792969 C49.9801645,68.8808594 50.5709809,69.1816406 51.3233466,69.1816406 Z M51.5780839,68.1328125 C51.0213445,68.1328125 50.619445,67.9306641 50.3743605,67.5263672 C50.1319093,67.1220703 50.0199587,66.53125 50.0365337,65.7539063 C50.0533585,64.9648438 50.221702,64.3554688 50.5388476,63.9257812 C50.8523713,63.4960938 51.2826344,63.28125 51.8323534,63.28125 C52.079379,63.28125 52.3075027,63.3066406 52.5169434,63.3574219 C52.7266759,63.4082031 52.9653492,63.5 53.2334698,63.6328125 L53.3155503,67.3886719 C53.0585942,67.6074219 52.7792252,67.7861328 52.4777421,67.9248047 C52.1751699,68.0634766 51.8750115,68.1328125 51.5780839,68.1328125 Z M59.3839353,69.1523438 C59.7938216,69.1523438 60.1791655,69.0996094 60.5392168,68.9941406 C60.898268,68.8886719 61.2457108,68.7578125 61.5812292,68.6015625 L61.4280409,67.4003906 L61.3728932,67.4003906 C61.2141366,67.5722656 60.9321349,67.7470703 60.5260182,67.9248047 C60.1179351,68.1025391 59.7014353,68.1914062 59.2779935,68.1914062 C58.9585549,68.1914062 58.6617981,68.1445312 58.3882044,68.0507813 C58.1152529,67.9570312 57.8752176,67.8164062 57.6683174,67.6289062 C57.4546984,67.4375 57.2803059,67.1923828 57.1450629,66.8935547 C57.0107073,66.5947266 56.9297827,66.2441406 56.9016237,65.8417969 L61.3481315,65.8417969 L61.2709664,65.2441406 C61.14841,64.2949219 60.8399168,63.5625 60.3500244,63.046875 C59.8661824,62.53125 59.2388312,62.2734375 58.4634329,62.2734375 C57.6262772,62.2734375 56.9745564,62.5878906 56.5015161,63.2167969 C56.0194696,63.8457031 55.8051801,64.6953125 55.8654022,65.765625 C55.9262837,66.8476562 56.2610862,67.6826172 56.8763983,68.2705078 C57.5004952,68.8583984 58.3385371,69.1523438 59.3839353,69.1523438 Z M56.8425717,64.9980469 C56.8489255,64.4824219 56.9969095,64.0507813 57.2847329,63.703125 C57.5695758,63.3554688 57.9732016,63.1816406 58.4978456,63.1816406 C59.0190151,63.1816406 59.424229,63.3398438 59.7151578,63.65625 C60.0083143,63.9726563 60.1909955,64.4199219 60.2615721,64.9980469 L56.8425717,64.9980469 Z M64.8124595,71.4140625 L64.3652259,68.671875 C64.6640867,68.828125 64.952376,68.9433594 65.22965,69.0175781 C65.5074253,69.0917969 65.8100306,69.1289063 66.1370899,69.1289063 C66.5130202,69.1289063 66.8538648,69.0498047 67.1586066,68.8916016 C67.4619921,68.7333984 67.7066602,68.5097656 67.8922576,68.2207031 C68.0912107,67.9160156 68.2145822,67.5439453 68.2626949,67.1044922 C68.3091659,66.6650391 68.2732931,66.1796875 68.1563079,65.6484375 C67.9231977,64.5898438 67.5440494,63.7626953 67.0236778,63.1669922 C66.5097255,62.5712891 65.9086291,62.2734375 65.215574,62.2734375 C64.8518916,62.2734375 64.5245673,62.3564453 64.2324861,62.5224609 C63.9389179,62.6884766 63.6825307,62.8945313 63.4631136,63.140625 L63.3513052,62.4550781 L62.3813195,62.4550781 L63.7214725,71.4140625 L64.8124595,71.4140625 Z M65.770438,68.1386719 C65.499471,68.1386719 65.2528093,68.1132812 65.0306626,68.0625 C64.8087956,68.0117188 64.5380469,67.9160156 64.2190149,67.7753906 L63.6141027,64.0664062 C63.840752,63.84375 64.0853598,63.6640625 64.3483204,63.5273437 C64.6102071,63.390625 64.8817363,63.3222656 65.1637134,63.3222656 C65.6615248,63.3222656 66.0692054,63.5175781 66.3886916,63.9082031 C66.7107595,64.2988281 66.9541417,64.8886719 67.1169019,65.6777344 C67.2844965,66.4902344 67.2498571,67.1035156 67.0103659,67.5175781 C66.7673844,67.9316406 66.3532026,68.1386719 65.770438,68.1386719 Z M72.5654974,69.1289063 C72.7497032,69.1289063 72.9545095,69.1113281 73.1797584,69.0761719 C73.4047969,69.0410156 73.609058,68.9960938 73.7924915,68.9414063 L73.5123296,67.9511719 L73.4567862,67.9511719 C73.3852067,67.9863281 73.2641214,68.0302734 73.0933964,68.0830078 C72.9224188,68.1357422 72.7514364,68.1621094 72.5806384,68.1621094 C72.2873115,68.1621094 72.0596504,68.1259766 71.897855,68.0537109 C71.7363261,67.9814453 71.594745,67.8671875 71.473159,67.7109375 C71.341532,67.5429688 71.2438002,67.3623047 71.1797295,67.1689453 C71.1157328,66.9755859 71.0399255,66.7070312 70.9522519,66.3632812 L70.1915839,63.3808594 L72.2192748,63.3808594 L71.9573483,62.4550781 L69.955463,62.4550781 L69.475749,60.5742188 L68.5311665,60.5742188 L68.9854773,62.4550781 L68.330221,62.4550781 L68.5453915,63.3808594 L69.2090945,63.3808594 L70.0497819,66.8613281 C70.241319,67.6542969 70.5458641,68.2304687 70.9657152,68.5898438 C71.38863,68.9492188 71.9226566,69.1289063 72.5654974,69.1289063 Z M76.1453918,69 L74.6171247,64.1132812 C74.8151677,63.8828125 75.0368869,63.6933594 75.2826615,63.5449219 C75.5272417,63.3964844 75.7831101,63.3222656 76.0511624,63.3222656 C76.3122523,63.3222656 76.5383142,63.3623047 76.7296185,63.4423828 C76.9212833,63.5224609 77.0895067,63.6445313 77.2343131,63.8085938 C77.3705163,63.9570313 77.5009371,64.1630859 77.6254902,64.4267578 C77.7502707,64.6904297 77.8658079,64.9726563 77.9719314,65.2734375 L79.2867605,69 L80.3451429,69 L78.7889456,64.7519531 C78.4955935,63.9511719 78.1055362,63.3378906 77.6216797,62.9121094 C77.1416977,62.4863281 76.5926573,62.2734375 75.9716524,62.2734375 C75.6319868,62.2734375 75.3273496,62.3535156 75.0566595,62.5136719 C74.7845272,62.6738281 74.541136,62.8964844 74.3257645,63.1816406 L73.2940926,59.8828125 L72.3588483,59.8828125 L75.0870095,69 L76.1453918,69 Z" fill="#4A4A4A" fill-rule="nonzero"></path>
    </g>
</svg>