<?xml version="1.0" encoding="UTF-8"?>
<svg width="96px" height="96px" viewBox="0 0 96 96" version="1.1" xmlns="http://www.w3.org/2000/svg" xmlns:xlink="http://www.w3.org/1999/xlink">
    <title>origin</title>
    <g id="origin" stroke="none" stroke-width="1" fill="none" fill-rule="evenodd">
        <path id="Line" d="M79.8093429,43.3190816 L80.2451306,43.5642122 L88.2451306,48.0642122 L89.0198644,48.5 L88.2451306,48.9357878 L80.2451306,53.4357878 L79.8093429,53.6809184 L79.3190816,52.8093429 L79.7548694,52.5642122 L86.091,49 L48,49 L48,48 L86.091,48 L79.7548694,44.4357878 L79.3190816,44.1906571 L79.8093429,43.3190816 Z" fill="#7ED321" fill-rule="nonzero"></path>
        <polygon id="Combined-Shape" stroke="#000000" stroke-linejoin="round" points="48 61.5 32.1297982 69.8434588 35.160737 52.1717294 22.3214741 39.6565412 40.0648991 37.0782706 48 21 55.9351009 37.0782706 73.6785259 39.6565412 60.839263 52.1717294 63.8702018 69.8434588"></polygon>
        <path d="M22.3214741,21 L73.3214741,21 L73.3214741,70 L22.3214741,70 L22.3214741,21 Z" id="Rectangle" stroke="#000000" opacity="0.0626627604" stroke-linejoin="round" stroke-dasharray="2,2"></path>
        <path id="Line" d="M48.5,3.98013557 L48.9357878,4.75486938 L53.4357878,12.7548694 L53.6809184,13.1906571 L52.8093429,13.6809184 L52.5642122,13.2451306 L49,6.908 L49,49 L48,49 L48,6.908 L44.4357878,13.2451306 L44.1906571,13.6809184 L43.3190816,13.1906571 L43.5642122,12.7548694 L48.0642122,4.75486938 L48.5,3.98013557 Z" fill="#D0021B" fill-rule="nonzero"></path>
        <text id="[0,0]" font-family="72-Regular, 72" font-size="11" font-weight="normal" fill="#4A4A4A">
            <tspan x="37.7980957" y="58">[0,0]</tspan>
        </text>
    </g>
</svg>