<?xml version="1.0" encoding="UTF-8"?>
<svg width="96px" height="96px" viewBox="0 0 96 96" version="1.1" xmlns="http://www.w3.org/2000/svg" xmlns:xlink="http://www.w3.org/1999/xlink">
    <title>pipeline_engrave_heightmap</title>
    <defs>
        <path d="M29.3262191,28 L78.4395557,28 C79.3506417,28 80.1465842,28.6157561 80.3754344,29.4976321 L93.3506259,79.4976321 C93.6280761,80.5667884 92.9862714,81.6584286 91.9171152,81.9358787 C91.7530528,81.9784535 91.5842437,82 91.4147472,82 L18.4803472,82 C17.3757777,82 16.4803472,81.1045695 16.4803472,80 C16.4803472,79.857459 16.4955855,79.7153265 16.5258024,79.5760252 L27.3716743,29.5760252 C27.5711947,28.6562264 28.3850294,28 29.3262191,28 Z" id="path-1"></path>
        <rect id="path-2" x="25" y="3" width="46" height="10" rx="1"></rect>
    </defs>
    <g id="pipeline_engrave_heightmap" stroke="none" stroke-width="1" fill="none" fill-rule="evenodd">
        <g id="Rectangle">
            <use stroke="#FFFFFF" stroke-width="3" fill="#FFFFFF" fill-rule="evenodd" xlink:href="#path-1"></use>
            <use stroke="#979797" stroke-width="1" xlink:href="#path-1"></use>
        </g>
        <polygon id="Triangle" fill="#878787" points="52.9370136 49.4436438 64.3041992 50.7893066 56.2972728 56.4313562 47.5 54.4865723"></polygon>
        <polygon id="Triangle" fill="#9B9B9B" points="47.1821289 42 52.8959961 49.8117676 53.3500977 49.4436438 47.5 54.4865723"></polygon>
        <polygon id="Triangle" fill="#9B9B9B" points="47.5 54.4865723 56.2972728 56.4313562 58.3740272 64.6127124 47.5 60.75"></polygon>
        <path d="M47.5,60.75 L36.9198655,64.6127124 L38.9404914,56.4313562 L30.3809827,50.6372876 L42.2099327,49.4436438 L47.5,42" id="Path" stroke="#00ACC1" opacity="0.357003348" stroke-linejoin="round" stroke-dasharray="2,1"></path>
        <g id="Rectangle">
            <use stroke="#FFFFFF" stroke-width="3" fill="#FFFFFF" fill-rule="evenodd" xlink:href="#path-2"></use>
            <use stroke="#4A4A4A" stroke-width="2" xlink:href="#path-2"></use>
        </g>
        <polygon id="Rectangle" stroke="#4A4A4A" stroke-width="2" fill="#FFFFFF" points="39 3 57 3 57 16.4628906 51.9882812 23 47.5 23 42.8798828 23 39 16.4628906"></polygon>
        <circle id="Oval" stroke="#4A4A4A" fill="#D8D8D8" cx="47.5" cy="9.5" r="1.5"></circle>
        <polygon id="Triangle" stroke="#4A4A4A" fill="#4A4A4A" transform="translate(47.500000, 32.170654) scale(1, -1) translate(-47.500000, -32.170654) " points="47.5 24.3413086 49 32.3413086 49 40 46 40 46 32.3413086"></polygon>
        <polyline id="Path" stroke="#4A4A4A" stroke-linecap="round" stroke-linejoin="round" points="47.5 42 52.9370136 49.4436438 65.0945456 50.6372876 56.2972728 56.4313562 58.3740272 64.6127124 47.5 60.75"></polyline>
    </g>
</svg>