<?xml version="1.0" encoding="UTF-8"?>
<svg width="651px" height="290px" viewBox="0 0 651 290" version="1.1" xmlns="http://www.w3.org/2000/svg" xmlns:xlink="http://www.w3.org/1999/xlink">
    <title>teaser</title>
    <defs>
        <radialGradient cx="48.7573181%" cy="68.6772245%" fx="48.7573181%" fy="68.6772245%" r="128.069597%" gradientTransform="translate(0.487573,0.686772),scale(0.417431,1.000000),rotate(172.055705),translate(-0.487573,-0.686772)" id="radialGradient-1">
            <stop stop-color="#FDD341" offset="0%"></stop>
            <stop stop-color="#FAA841" offset="100%"></stop>
        </radialGradient>
        <linearGradient x1="72.7686761%" y1="50%" x2="14.5676137%" y2="53.4792197%" id="linearGradient-2">
            <stop stop-color="#14BFF2" offset="0%"></stop>
            <stop stop-color="#04AFF1" offset="100%"></stop>
        </linearGradient>
        <linearGradient x1="28.6743164%" y1="51.9539388%" x2="117.39502%" y2="51.9539388%" id="linearGradient-3">
            <stop stop-color="#CFCFD3" offset="0%"></stop>
            <stop stop-color="#4A4A4A" offset="100%"></stop>
        </linearGradient>
    </defs>
    <g id="teaser" stroke="none" stroke-width="1" fill="none" fill-rule="evenodd">
        <g id="Group-3" transform="translate(419.000000, 23.000000)">
            <polygon id="Rectangle" stroke="#4A4A4A" fill="url(#radialGradient-1)" stroke-linejoin="round" points="112.488028 84 218 84.6971585 218 113.110705 108.078437 175 0 113.110705 0 84.6971585"></polygon>
            <polygon id="Rectangle" stroke="#4A4A4A" fill="url(#linearGradient-2)" stroke-linejoin="round" points="109 22 218 85.1961955 108.078437 147 0 85.1961955"></polygon>
            <line x1="108" y1="147.882353" x2="108" y2="176.117647" id="Line" stroke="#4A4A4A" stroke-linecap="round" stroke-linejoin="round"></line>
            <path d="M127.695645,68.0182525 L155.110136,73.032311 C155.987207,73.1927255 156.285568,74.2442864 155.688466,74.8323726 L155.557012,74.9434089 L134.420394,90.2608253 L137.208615,111.794468 C137.308004,112.561935 136.57808,113.156062 135.851007,112.963403 L135.695552,112.909853 L111.608795,102.634118 L87.522039,112.909853 C87.0258871,113.121512 86.4570705,112.94153 86.173731,112.508656 L86.090349,112.355189 C85.8748705,111.867829 86.0581002,111.309093 86.498784,111.030775 L86.6550202,110.948871 L111.175286,100.488454 C111.39651,100.394079 111.641689,100.375204 111.872494,100.431829 L112.042305,100.488454 L134.806724,110.198842 L132.180309,89.9087358 C132.137645,89.5792945 132.253396,89.2525212 132.487217,89.0210274 L132.61378,88.9136492 L152.247793,74.6824127 L127.297232,70.1200625 C126.765449,70.0228003 126.396527,69.5610022 126.408264,69.0465045 L126.426574,68.8734812 C126.52559,68.3511223 126.99572,67.9887383 127.5195,68.0002674 L127.695645,68.0182525 Z" id="Path" fill="#FFFFFF" fill-rule="nonzero"></path>
            <path d="M126.505864,68.0153501 L153.27588,73.0694612 C153.982792,73.2029246 154.227712,74.0707517 153.760176,74.5672763 L153.639522,74.6747644 L132.915434,90.1764394 L135.651922,111.987365 C135.732387,112.628741 135.144872,113.125994 134.556234,112.971684 L134.420678,112.924277 L110.829613,102.535433 L87.2385484,112.924277 C86.8397928,113.099874 86.3833577,112.954568 86.1500175,112.600645 L86.0735209,112.458365 C85.9003415,112.054042 86.0436466,111.591235 86.3926963,111.354637 L86.533018,111.277072 L110.476848,100.733096 C110.656867,100.653822 110.85638,100.637967 111.044196,100.685532 L111.182378,100.733096 L133.698268,110.647257 L131.093216,89.8814844 C131.059463,89.6124438 131.147556,89.3455215 131.327327,89.1522061 L131.44595,89.0456215 L150.94717,74.4556269 L126.181658,69.7808496 C125.754265,69.700159 125.456148,69.3207758 125.458054,68.8950572 L125.473166,68.7337337 C125.552745,68.3003744 125.926905,67.9980949 126.346762,68.000009 L126.505864,68.0153501 Z" id="Path" fill="#4A4A4A" fill-rule="nonzero"></path>
            <g id="Group" transform="translate(121.000000, 9.000000)">
                <ellipse id="Oval" fill="#4A4A4A" cx="4.05" cy="1.78787879" rx="4.05" ry="1.78787879"></ellipse>
                <path d="M0.54,1.78787879 C1.74,2.53981218 2.94,2.91577888 4.14,2.91577888 C5.34,2.91577888 6.54,2.53981218 7.74,1.78787879 L7.74,55.4242424 L4.05,59 L0.54,55.4242424 L0.54,1.78787879 Z" id="Rectangle" stroke="#4A4A4A" stroke-width="0.5" fill="url(#linearGradient-3)" stroke-linejoin="round"></path>
            </g>
            <line x1="136.875" y1="19" x2="156.125" y2="19" id="Line-2" stroke="#F5A623" stroke-linecap="square"></line>
            <line x1="136.928571" y1="28" x2="148.071429" y2="28" id="Line-3" stroke="#F5A623" stroke-linecap="square"></line>
            <line x1="136.90625" y1="38" x2="164.09375" y2="38" id="Line-4" stroke="#F5A623" stroke-linecap="square"></line>
            <path d="M125,7 C129.970563,7 134,5.43299662 134,3.5 C134,1.56700338 129.970563,0 125,0 C120.029437,0 116,1.56700338 116,3.5" id="Path" stroke="#F5A623"></path>
            <line x1="121" y1="65" x2="119" y2="63" id="Line-5" stroke="#149BC3" stroke-linecap="round" stroke-linejoin="round"></line>
            <line x1="123" y1="71" x2="121" y2="73" id="Line-8" stroke="#149BC3" stroke-linecap="round" stroke-linejoin="round"></line>
            <line x1="129" y1="72" x2="130" y2="73" id="Line-7" stroke="#149BC3" stroke-linecap="round" stroke-linejoin="round"></line>
            <line x1="131" y1="67" x2="134" y2="66" id="Line-6" stroke="#149BC3" stroke-linecap="round" stroke-linejoin="round"></line>
        </g>
        <g id="Group-2" transform="translate(124.000000, 43.000000)">
            <polyline id="Line-2" stroke="#4A4A4A" stroke-width="2" stroke-linecap="round" stroke-linejoin="round" points="0 22 5.55111512e-15 2 20 2"></polyline>
            <polyline id="Line-2" stroke="#4A4A4A" stroke-width="2" stroke-linecap="round" stroke-linejoin="round" points="22 136 2 136 2 116"></polyline>
            <polyline id="Line-2" stroke="#4A4A4A" stroke-width="2" stroke-linecap="round" stroke-linejoin="round" transform="translate(119.000000, 126.000000) rotate(-90.000000) translate(-119.000000, -126.000000) " points="129 136 109 136 109 116"></polyline>
            <polyline id="Line-2" stroke="#4A4A4A" stroke-width="2" stroke-linecap="round" stroke-linejoin="round" transform="translate(117.000000, 10.000000) rotate(180.000000) translate(-117.000000, -10.000000) " points="127 20 107 20 107 0"></polyline>
            <rect id="Rectangle" stroke="#979797" fill="#FFFFFF" x="23" y="14" width="81" height="113"></rect>
            <polygon id="Star" stroke="#00ACC1" stroke-linejoin="round" points="63.5 85.25 46.1603351 94.3660013 49.4719164 75.0580007 35.4438328 61.3839987 54.8301675 58.5669993 63.5 41 72.1698325 58.5669993 91.5561672 61.3839987 77.5280836 75.0580007 80.8396649 94.3660013"></polygon>
            <line x1="4.89705882" y1="89" x2="125.102941" y2="89" id="Line" stroke="#D0021B" stroke-linecap="square"></line>
            <line x1="4.89705882" y1="87" x2="125.102941" y2="87" id="Line" stroke="#FFFFFF" stroke-width="2" stroke-linecap="square"></line>
            <line x1="4" y1="92" x2="124" y2="92" id="Line" stroke="#FFFFFF" stroke-width="2" stroke-linecap="square"></line>
        </g>
        <text id="WebCam" font-family="Verdana" font-size="18" font-weight="normal" fill="#000000">
            <tspan x="155" y="247">WebCam</tspan>
        </text>
        <text id="GRBL-Code" font-family="Verdana" font-size="18" font-weight="normal" fill="#000000">
            <tspan x="478" y="258">GRBL Code</tspan>
        </text>
        <path id="Line-10" d="M357.194009,191.5 C393.883173,191.5 431.557665,200.755563 470.208132,219.252219 L473.880727,212.099609 L486.44481,229.228352 L465.203366,229.002372 L468.837684,221.922223 C430.603034,203.635928 393.391587,194.5 357.194009,194.5 C316.234334,194.5 277.457241,204.602742 240.840128,224.816364 L239.73118,225.431993 L238.421456,226.163173 L236.959097,223.543725 L238.26882,222.812546 C275.656154,201.940311 315.305648,191.5 357.194009,191.5 Z" fill="#F54768" fill-rule="nonzero"></path>
    </g>
</svg>