<?xml version="1.0" encoding="UTF-8"?>
<svg width="96px" height="96px" viewBox="0 0 96 96" version="1.1" xmlns="http://www.w3.org/2000/svg" xmlns:xlink="http://www.w3.org/1999/xlink">
    <title>grayscale</title>
    <defs>
        <radialGradient cx="50%" cy="50%" fx="50%" fy="50%" r="91.3284093%" id="radialGradient-1">
            <stop stop-color="#8FDBE4" offset="0%"></stop>
            <stop stop-color="#00ACC1" offset="100%"></stop>
        </radialGradient>
        <radialGradient cx="50%" cy="69.7265625%" fx="50%" fy="69.7265625%" r="275.619803%" gradientTransform="translate(0.500000,0.697266),scale(0.605387,1.000000),rotate(61.187615),translate(-0.500000,-0.697266)" id="radialGradient-2">
            <stop stop-color="#FFFFFF" offset="0%"></stop>
            <stop stop-color="#000000" offset="100%"></stop>
        </radialGradient>
    </defs>
    <g id="grayscale" stroke="none" stroke-width="1" fill="none" fill-rule="evenodd">
        <rect id="Rectangle" stroke="#979797" fill="#FFFFFF" x="26" y="18" width="45" height="63"></rect>
        <polygon id="Star" stroke="#00ACC1" fill="url(#radialGradient-1)" stroke-linejoin="round" points="48.5 57.75 38.8015433 62.8487804 40.6537837 52.0493902 32.8075675 44.4012196 43.6507717 42.8256098 48.5 33 53.3492283 42.8256098 64.1924325 44.4012196 56.3462163 52.0493902 58.1984567 62.8487804"></polygon>
        <path d="M48.5,33 L53.3492283,42.8256098 L64.1924325,44.4012196 L56.3955675,52 L40.6035675,52 L32.8075675,44.4012196 L43.6507717,42.8256098 L48.5,33 Z" id="Combined-Shape" stroke="#000000" fill="url(#radialGradient-2)" stroke-linejoin="round"></path>
        <g id="Group" transform="translate(14.000000, 50.000000)" stroke-linecap="square">
            <line x1="0.5" y1="1.5" x2="67.5" y2="1.5" id="Line" stroke="#D0021B"></line>
            <line x1="0.5" y1="0.5" x2="67.5" y2="0.5" id="Line" stroke="#FFFFFF" stroke-width="2"></line>
            <line x1="0.5" y1="3" x2="67.5" y2="3" id="Line" stroke="#FFFFFF" stroke-width="2"></line>
        </g>
    </g>
</svg>