<?xml version="1.0" encoding="UTF-8"?>
<svg width="96px" height="96px" viewBox="0 0 96 96" version="1.1" xmlns="http://www.w3.org/2000/svg" xmlns:xlink="http://www.w3.org/1999/xlink">
    <title>to_halftone_dots</title>
    <g id="to_halftone_dots" stroke="none" stroke-width="1" fill="none" fill-rule="evenodd">
        <rect id="Rectangle" stroke="#000000" fill="#FFFFFF" x="16" y="11" width="63" height="71" rx="3"></rect>
        <g id="dots" transform="translate(20.000000, 15.000000)" fill="#F5A623">
            <circle id="Oval" cx="12" cy="2" r="1"></circle>
            <circle id="Oval" cx="17" cy="2" r="1"></circle>
            <circle id="Oval" cx="27" cy="2" r="2"></circle>
            <circle id="Oval" cx="37" cy="2" r="1"></circle>
            <circle id="Oval" cx="42" cy="2" r="1"></circle>
            <circle id="Oval" cx="47" cy="2" r="1"></circle>
            <circle id="Oval" cx="12" cy="7" r="1"></circle>
            <circle id="Oval" cx="17" cy="7" r="1"></circle>
            <circle id="Oval" cx="27" cy="7" r="2"></circle>
            <circle id="Oval" cx="37" cy="7" r="1"></circle>
            <circle id="Oval" cx="42" cy="7" r="1"></circle>
            <circle id="Oval" cx="47" cy="7" r="1"></circle>
            <circle id="Oval" cx="12" cy="2" r="1"></circle>
            <circle id="Oval" cx="17" cy="2" r="1"></circle>
            <circle id="Oval" cx="22" cy="2" r="1"></circle>
            <circle id="Oval" cx="27" cy="2" r="2"></circle>
            <circle id="Oval" cx="32" cy="2" r="1"></circle>
            <circle id="Oval" cx="37" cy="2" r="1"></circle>
            <circle id="Oval" cx="42" cy="2" r="1"></circle>
            <circle id="Oval" cx="47" cy="2" r="1"></circle>
            <circle id="Oval" cx="12" cy="7" r="1"></circle>
            <circle id="Oval" cx="17" cy="7" r="1"></circle>
            <circle id="Oval" cx="22" cy="7" r="1"></circle>
            <circle id="Oval" cx="27" cy="7" r="2"></circle>
            <circle id="Oval" cx="32" cy="7" r="1.5"></circle>
            <circle id="Oval" cx="37" cy="7" r="1"></circle>
            <circle id="Oval" cx="42" cy="7" r="1"></circle>
            <circle id="Oval" cx="47" cy="7" r="1"></circle>
            <circle id="Oval" cx="12" cy="12" r="1"></circle>
            <circle id="Oval" cx="17" cy="12" r="1"></circle>
            <circle id="Oval" cx="22" cy="12" r="2"></circle>
            <circle id="Oval" cx="27" cy="12" r="1"></circle>
            <circle id="Oval" cx="32" cy="12" r="1.5"></circle>
            <circle id="Oval" cx="37" cy="12" r="1"></circle>
            <circle id="Oval" cx="42" cy="12" r="1"></circle>
            <circle id="Oval" cx="47" cy="12" r="1"></circle>
            <circle id="Oval" cx="12" cy="17" r="2"></circle>
            <circle id="Oval" cx="17" cy="17" r="2"></circle>
            <circle id="Oval" cx="22" cy="17" r="2"></circle>
            <circle id="Oval" cx="27" cy="17" r="1"></circle>
            <circle id="Oval" cx="32" cy="17" r="1"></circle>
            <circle id="Oval" cx="37" cy="17" r="2"></circle>
            <circle id="Oval" cx="42" cy="17" r="2"></circle>
            <circle id="Oval" cx="47" cy="17" r="2"></circle>
            <circle id="Oval" cx="12" cy="22" r="1"></circle>
            <circle id="Oval" cx="17" cy="22" r="1"></circle>
            <circle id="Oval" cx="22" cy="22" r="1"></circle>
            <circle id="Oval" cx="27" cy="22" r="1"></circle>
            <circle id="Oval" cx="32" cy="22" r="1"></circle>
            <circle id="Oval" cx="37" cy="22" r="1"></circle>
            <circle id="Oval" cx="42" cy="22" r="1"></circle>
            <circle id="Oval" cx="47" cy="22" r="1"></circle>
            <circle id="Oval" cx="12" cy="27" r="2"></circle>
            <circle id="Oval" cx="17" cy="27" r="1"></circle>
            <circle id="Oval" cx="22" cy="27" r="1"></circle>
            <circle id="Oval" cx="27" cy="27" r="1"></circle>
            <circle id="Oval" cx="32" cy="27" r="1"></circle>
            <circle id="Oval" cx="37" cy="27" r="1"></circle>
            <circle id="Oval" cx="42" cy="27" r="1"></circle>
            <circle id="Oval" cx="47" cy="27" r="2"></circle>
            <circle id="Oval" cx="12" cy="32" r="1"></circle>
            <circle id="Oval" cx="17" cy="32" r="2"></circle>
            <circle id="Oval" cx="22" cy="32" r="1"></circle>
            <circle id="Oval" cx="27" cy="32" r="1"></circle>
            <circle id="Oval" cx="32" cy="32" r="1"></circle>
            <circle id="Oval" cx="37" cy="32" r="1"></circle>
            <circle id="Oval" cx="42" cy="32" r="2"></circle>
            <circle id="Oval" cx="47" cy="32" r="1"></circle>
            <circle id="Oval" cx="12.5" cy="37.5" r="1.5"></circle>
            <circle id="Oval" cx="17.5" cy="37.5" r="1.5"></circle>
            <circle id="Oval" cx="22" cy="37" r="1"></circle>
            <circle id="Oval" cx="27" cy="37" r="1"></circle>
            <circle id="Oval" cx="32" cy="37" r="1"></circle>
            <circle id="Oval" cx="37" cy="37" r="1"></circle>
            <circle id="Oval" cx="42" cy="37" r="2"></circle>
            <circle id="Oval" cx="47" cy="37" r="1"></circle>
            <circle id="Oval" cx="12" cy="42" r="2"></circle>
            <circle id="Oval" cx="17" cy="42" r="1"></circle>
            <circle id="Oval" cx="22.5" cy="42.5" r="1.5"></circle>
            <circle id="Oval" cx="27" cy="42" r="2"></circle>
            <circle id="Oval" cx="32" cy="42" r="1.5"></circle>
            <circle id="Oval" cx="37" cy="42" r="1"></circle>
            <circle id="Oval" cx="42" cy="42" r="2"></circle>
            <circle id="Oval" cx="47" cy="42" r="1"></circle>
            <circle id="Oval" cx="12" cy="47" r="2"></circle>
            <circle id="Oval" cx="17" cy="47" r="2"></circle>
            <circle id="Oval" cx="2" cy="2" r="1"></circle>
            <circle id="Oval" cx="7" cy="2" r="1"></circle>
            <circle id="Oval" cx="2" cy="7" r="1"></circle>
            <circle id="Oval" cx="7" cy="7" r="1"></circle>
            <circle id="Oval" cx="2" cy="2" r="1"></circle>
            <circle id="Oval" cx="7" cy="2" r="1"></circle>
            <circle id="Oval" cx="2" cy="7" r="1"></circle>
            <circle id="Oval" cx="7" cy="7" r="1"></circle>
            <circle id="Oval" cx="2" cy="12" r="1"></circle>
            <circle id="Oval" cx="7" cy="12" r="1"></circle>
            <circle id="Oval" cx="2" cy="17" r="1"></circle>
            <circle id="Oval" cx="7" cy="17" r="2"></circle>
            <circle id="Oval" cx="2" cy="22" r="2"></circle>
            <circle id="Oval" cx="7" cy="22" r="1.5"></circle>
            <circle id="Oval" cx="2" cy="27" r="1"></circle>
            <circle id="Oval" cx="7" cy="27" r="1.5"></circle>
            <circle id="Oval" cx="2" cy="32" r="1"></circle>
            <circle id="Oval" cx="7" cy="32" r="1"></circle>
            <circle id="Oval" cx="2" cy="37" r="1"></circle>
            <circle id="Oval" cx="7" cy="37" r="1"></circle>
            <circle id="Oval" cx="2" cy="42" r="1"></circle>
            <circle id="Oval" cx="7" cy="42" r="1"></circle>
            <circle id="Oval" cx="2" cy="47" r="1"></circle>
            <circle id="Oval" cx="7" cy="47" r="1"></circle>
            <circle id="Oval" cx="22" cy="47" r="1.5"></circle>
            <circle id="Oval" cx="27" cy="47" r="1"></circle>
            <circle id="Oval" cx="32" cy="47" r="1"></circle>
            <circle id="Oval" cx="37" cy="47" r="2"></circle>
            <circle id="Oval" cx="42" cy="47" r="2"></circle>
            <circle id="Oval" cx="47" cy="47" r="1"></circle>
            <circle id="Oval" cx="52" cy="2" r="1"></circle>
            <circle id="Oval" cx="52" cy="7" r="1"></circle>
            <circle id="Oval" cx="52" cy="2" r="1"></circle>
            <circle id="Oval" cx="52" cy="7" r="1"></circle>
            <circle id="Oval" cx="52" cy="12" r="1"></circle>
            <circle id="Oval" cx="52.5" cy="17.5" r="1.5"></circle>
            <circle id="Oval" cx="52" cy="22" r="2"></circle>
            <circle id="Oval" cx="52" cy="27" r="1"></circle>
            <circle id="Oval" cx="52" cy="32" r="1"></circle>
            <circle id="Oval" cx="52" cy="37" r="1"></circle>
            <circle id="Oval" cx="52" cy="42" r="1"></circle>
            <circle id="Oval" cx="52" cy="47" r="1"></circle>
            <circle id="Oval" cx="12" cy="52" r="2"></circle>
            <circle id="Oval" cx="17" cy="52" r="1"></circle>
            <circle id="Oval" cx="2" cy="52" r="1"></circle>
            <circle id="Oval" cx="7" cy="52" r="1"></circle>
            <circle id="Oval" cx="22" cy="52" r="1"></circle>
            <circle id="Oval" cx="27" cy="52" r="1"></circle>
            <circle id="Oval" cx="32" cy="52" r="1"></circle>
            <circle id="Oval" cx="37" cy="52" r="1"></circle>
            <circle id="Oval" cx="42" cy="52" r="1"></circle>
            <circle id="Oval" cx="47" cy="52" r="1"></circle>
            <circle id="Oval" cx="52" cy="52" r="1"></circle>
        </g>
        <text id="dots" font-family="Verdana" font-size="10" font-weight="normal" fill="#000000">
            <tspan x="55" y="78">dots</tspan>
        </text>
    </g>
</svg>