{
  "title" : "",
  "description" : "",
  "author" : "",
  "width" : 1600.0,
  "height" : 1004.0,
  "version" : "2.0",
  "editRate" : 30,
  "authoringClientName" :  {
    "name" : "Camtasia",
    "platform" : "Mac",
    "version" : "2018.0.6"
  },
  "sourceBin" : [
    {
      "id" : 1,
      "src" : "./recordings/1594674197.398889/Aufn . 4.trec",
      "rect" : [0, 0, 1600, 1004],
      "lastMod" : "20200713T210039",
      "sourceTracks" : [
        {
          "range" : [0, 3297],
          "type" : 0,
          "editRate" : 30,
          "trackRect" : [0, 0, 1600, 1004],
          "sampleRate" : 0,
          "bitDepth" : 0,
          "numChannels" : 0,
          "metaData" : "2b7b6a01-7a1f-11e2-83d0-0017f200be7f;2b7b6af0-7a1f-11e2-83d0-0017f200be7f;2b7b6af1-7a1f-11e2-83d0-0017f200be7f;2b7b6af2-7a1f-11e2-83d0-0017f200be7f;2b7b6af3-7a1f-11e2-83d0-0017f200be7f;2b7b6af5-7a1f-11e2-83d0-0017f200be7f;2b7b6af6-7a1f-11e2-83d0-0017f200be7f;2b7b6af7-7a1f-11e2-83d0-0017f200be7f;2b7b6af8-7a1f-11e2-83d0-0017f200be7f;2b7b6af9-7a1f-11e2-83d0-0017f200be7f;2b7b6afa-7a1f-11e2-83d0-0017f200be7f;2b7b6afb-7a1f-11e2-83d0-0017f200be7f;2b7b6afc-7a1f-11e2-83d0-0017f200be7f;"
        }
      ]
    },
    {
      "id" : 2,
      "src" : "./media/1594674722.709027/teaser.png",
      "rect" : [0, 0, 651, 290],
      "lastMod" : "20200713T202722",
      "sourceTracks" : [
        {
          "range" : [0, 1],
          "type" : 1,
          "editRate" : 600,
          "trackRect" : [0, 0, 651, 290],
          "sampleRate" : 0,
          "bitDepth" : 0,
          "numChannels" : 0,
          "metaData" : ""
        }
      ]
    },
    {
      "id" : 3,
      "src" : "/Users/d023280/Movies/Camtasia 2018/Temporary Recordings/Aufn . 5.trec",
      "rect" : [0, 0, 0, 0],
      "lastMod" : "20200713T214015",
      "sourceTracks" : [
        {
          "range" : [0, 3210240],
          "type" : 2,
          "editRate" : 44100,
          "trackRect" : [0, 0, 0, 0],
          "sampleRate" : 44100,
          "bitDepth" : 16,
          "numChannels" : 2,
          "metaData" : ""
        }
      ]
    }
  ],
  "timeline" : {
    "id" : 4,
    "sceneTrack" : {
      "scenes" : [
        {
          "duration" : 72.8,
          "title" : "",
          "type" : "",
          "csml" : {
            "tracks" : [
              {
                "trackIndex" : 0,
                "medias" : [
                ]
              },
              {
                "trackIndex" : 1,
                "medias" : [
                  {
                    "id" : 5,
                    "_type" : "Callout",
                    "def" : {
                      "kind" : "remix",
                      "shape" : "shape-rectangle",
                      "style" : "basic",
                      "fill-color-blue" : 1.0,
                      "fill-color-green" : 1.0,
                      "fill-color-opacity" : 1.0,
                      "fill-color-red" : 1.0,
                      "height" : 1069.96875000006,
                      "stroke-color-blue" : 1.0,
                      "stroke-color-green" : 1.0,
                      "stroke-color-opacity" : 1.0,
                      "stroke-color-red" : 1.0,
                      "stroke-width" : 0.0,
                      "width" : 1698.98437500016,
                      "fill-style" : "solid",
                      "horizontal-alignment" : "center",
                      "stroke-style" : "solid",
                      "vertical-alignment" : "center",
                      "textAttributes" : {
                        "type" : "textAttributeList",
                        "keyframes" : [
                          {
                            "endTime" : 0,
                            "time" : 0,
                            "value" : null,
                            "duration" : 0
                          }
                        ]
                      }
                    },
                    "attributes" : {
                      "autoRotateText" : true
                    },
                    "parameters" : {
                      "translation0" : 12.1875000000786,
                      "translation1" : 0.359374999971351
                    },
                    "effects" : [
                        {
                          "effectName" : "DropShadow",
                          "category" : "categoryVisualEffects",
                          "parameters" : {
                            "angle" : -0.785398163397448,
                            "blur" : 10.0,
                            "color-alpha" : 1.0,
                            "color-blue" : 0.0,
                            "color-green" : 0.0,
                            "color-red" : 0.0,
                            "enabled" : 1,
                            "offset" : 10.0,
                            "opacity" : 0.4
                          }
                        }
                    ],
                    "start" : 0,
                    "duration" : 2122,
                    "mediaStart" : 0,
                    "mediaDuration" : 2122,
                    "scalar" : 1,
                    "metadata" : {
                      "clipSpeedAttribute" : false,
                      "default-scale" : "1",
                      "effectApplied" : "none"
                    },
                    "animationTracks" : {

                    }
                  }
                ]
              },
              {
                "trackIndex" : 2,
                "medias" : [
                  {
                    "id" : 6,
                    "_type" : "IMFile",
                    "src" : 2,
                    "trackNumber" : 0,
                    "trimStartSum" : 0,
                    "attributes" : {
                      "ident" : "teaser"
                    },
                    "parameters" : {
                      "translation0" : {
                        "type" : "double",
                        "defaultValue" : -35.4362460153759,
                        "interp" : "eioe"
                      },
                      "translation1" : {
                        "type" : "double",
                        "defaultValue" : -244.473868902521,
                        "interp" : "eioe"
                      },
                      "scale0" : {
                        "type" : "double",
                        "defaultValue" : 1.99673193860331,
                        "interp" : "eioe"
                      },
                      "scale1" : {
                        "type" : "double",
                        "defaultValue" : 1.99673193860331,
                        "interp" : "eioe"
                      }
                    },
                    "effects" : [

                    ],
                    "start" : 0,
                    "duration" : 2122,
                    "mediaStart" : 0,
                    "mediaDuration" : 1,
                    "scalar" : 1,
                    "metadata" : {
                      "clipSpeedAttribute" : false,
                      "default-scale" : "1",
                      "effectApplied" : "none"
                    },
                    "animationTracks" : {

                    }
                  }
                ]
              },
              {
                "trackIndex" : 3,
                "medias" : [
                  {
                    "id" : 7,
                    "_type" : "Callout",
                    "def" : {
                      "kind" : "remix",
                      "shape" : "text",
                      "style" : "basic",
                      "height" : 333.507812500003,
                      "width" : 1125.25000000008,
                      "word-wrap" : 1.0,
                      "horizontal-alignment" : "center",
                      "text" : "HoruCNC",
                      "vertical-alignment" : "center",
                      "font" : {
                        "color-blue" : 1.0,
                        "color-green" : 1.0,
                        "color-red" : 1.0,
                        "size" : 96.0,
                        "tracking" : 0.0,
                        "name" : "Montserrat",
                        "weight" : "Regular"
                      },
                      "textAttributes" : {
                        "type" : "textAttributeList",
                        "keyframes" : [
                          {
                            "endTime" : 0,
                            "time" : 0,
                            "value" : [{"name":"fontName","rangeEnd":7,"rangeStart":0,"value":"Montserrat","valueType":"string"},{"name":"underline","rangeEnd":7,"rangeStart":0,"value":0,"valueType":"int"},{"name":"strikethrough","rangeEnd":7,"rangeStart":0,"value":0,"valueType":"int"},{"name":"fontItalic","rangeEnd":7,"rangeStart":0,"value":0,"valueType":"int"},{"name":"fontSize","rangeEnd":7,"rangeStart":0,"value":207,"valueType":"double"},{"name":"fgColor","rangeEnd":7,"rangeStart":0,"value":"(20,191,242,255)","valueType":"color"},{"name":"fontWeight","rangeEnd":7,"rangeStart":0,"value":400,"valueType":"int"}],
                            "duration" : 0
                          }
                        ]
                      }
                    },
                    "attributes" : {
                      "autoRotateText" : true
                    },
                    "parameters" : {
                      "translation0" : -224.765624999961,
                      "translation1" : 335.464843749998
                    },
                    "effects" : [
                        {
                          "effectName" : "DropShadow",
                          "category" : "categoryVisualEffects",
                          "parameters" : {
                            "angle" : -0.785398163397448,
                            "blur" : 10.0,
                            "color-alpha" : 1.0,
                            "color-blue" : 0.0,
                            "color-green" : 0.0,
                            "color-red" : 0.0,
                            "enabled" : 1,
                            "offset" : 10.0,
                            "opacity" : 0.4
                          }
                        }
                    ],
                    "start" : 0,
                    "duration" : 2122,
                    "mediaStart" : 0,
                    "mediaDuration" : 2122,
                    "scalar" : 1,
                    "metadata" : {
                      "clipSpeedAttribute" : false,
                      "default-scale" : "1",
                      "default-text" : "{\\rtf1\\ansi\\ansicpg1252\\cocoartf2512\n\\cocoatextscaling0\\cocoaplatform0{\\fonttbl\\f0\\fnil\\fcharset0 Montserrat-Regular;}\n{\\colortbl;\\red255\\green255\\blue255;\\red255\\green255\\blue255;}\n{\\*\\expandedcolortbl;;\\cssrgb\\c100000\\c100000\\c100000;}\n\\pard\\tx560\\tx1120\\tx1680\\tx2240\\tx2800\\tx3360\\tx3920\\tx4480\\tx5040\\tx5600\\tx6160\\tx6720\\pardirnatural\\qc\\partightenfactor0\n\n\\f0\\fs192 \\cf2 \\ulnone HoruCNC}",
                      "effectApplied" : "none"
                    },
                    "animationTracks" : {

                    }
                  }
                ]
              },
              {
                "trackIndex" : 4,
                "medias" : [
                  {
                    "id" : 8,
                    "_type" : "Callout",
                    "def" : {
                      "kind" : "remix",
                      "shape" : "text",
                      "style" : "basic",
                      "height" : 93.3022621949583,
                      "width" : 548.401562499992,
                      "word-wrap" : 1.0,
                      "horizontal-alignment" : "left",
                      "text" : "do one thing andÂ do it well",
                      "vertical-alignment" : "center",
                      "font" : {
                        "color-blue" : 1.0,
                        "color-green" : 1.0,
                        "color-red" : 1.0,
                        "size" : 96.0,
                        "tracking" : 0.0,
                        "name" : "Montserrat",
                        "weight" : "Regular"
                      },
                      "textAttributes" : {
                        "type" : "textAttributeList",
                        "keyframes" : [
                          {
                            "endTime" : 0,
                            "time" : 0,
                            "value" : [{"name":"fgColor","rangeEnd":28,"rangeStart":16,"value":"(77,81,86,255)","valueType":"color"},{"name":"fontSize","rangeEnd":28,"rangeStart":0,"value":39,"valueType":"double"},{"name":"fontItalic","rangeEnd":28,"rangeStart":0,"value":0,"valueType":"int"},{"name":"fgColor","rangeEnd":16,"rangeStart":0,"value":"(95,99,104,255)","valueType":"color"},{"name":"underline","rangeEnd":28,"rangeStart":0,"value":0,"valueType":"int"},{"name":"fontName","rangeEnd":28,"rangeStart":0,"value":"Arial","valueType":"string"},{"name":"strikethrough","rangeEnd":28,"rangeStart":0,"value":0,"valueType":"int"},{"name":"fontWeight","rangeEnd":28,"rangeStart":0,"value":400,"valueType":"int"}],
                            "duration" : 0
                          }
                        ]
                      }
                    },
                    "attributes" : {
                      "autoRotateText" : true
                    },
                    "parameters" : {
                      "translation0" : 259.480468749996,
                      "translation1" : 181.401131097479
                    },
                    "effects" : [
                        {
                          "effectName" : "DropShadow",
                          "category" : "categoryVisualEffects",
                          "parameters" : {
                            "angle" : -0.785398163397448,
                            "blur" : 10.0,
                            "color-alpha" : 1.0,
                            "color-blue" : 0.0,
                            "color-green" : 0.0,
                            "color-red" : 0.0,
                            "enabled" : 1,
                            "offset" : 10.0,
                            "opacity" : 0.4
                          }
                        }
                    ],
                    "start" : 0,
                    "duration" : 150,
                    "mediaStart" : 0,
                    "mediaDuration" : 150,
                    "scalar" : 1,
                    "metadata" : {
                      "clipSpeedAttribute" : false,
                      "default-scale" : "1",
                      "default-text" : "{\\rtf1\\ansi\\ansicpg1252\\cocoartf2512\n\\cocoatextscaling0\\cocoaplatform0{\\fonttbl\\f0\\fswiss\\fcharset0 Arial-BoldMT;\\f1\\fswiss\\fcharset0 ArialMT;}\n{\\colortbl;\\red255\\green255\\blue255;\\red77\\green80\\blue85;\\red60\\green64\\blue68;}\n{\\*\\expandedcolortbl;;\\cssrgb\\c37255\\c38824\\c40784;\\cssrgb\\c30196\\c31765\\c33725;}\n\\pard\\tx560\\tx1120\\tx1680\\tx2240\\tx2800\\tx3360\\tx3920\\tx4480\\tx5040\\tx5600\\tx6160\\tx6720\\pardirnatural\\partightenfactor0\n\n\\f0\\b\\fs28 \\cf2 \\ulnone do one thing and\n\\f1\\b0 \\cf3 \\'a0do it well}",
                      "effectApplied" : "none"
                    },
                    "animationTracks" : {

                    }
                  },
                  {
                    "id" : 9,
                    "_type" : "Callout",
                    "def" : {
                      "kind" : "remix",
                      "shape" : "text",
                      "style" : "basic",
                      "height" : 190.042968749997,
                      "width" : 1309.72656249984,
                      "word-wrap" : 1.0,
                      "horizontal-alignment" : "center",
                      "text" : "From template to GCode in just one minute",
                      "vertical-alignment" : "center",
                      "font" : {
                        "color-blue" : 1.0,
                        "color-green" : 1.0,
                        "color-red" : 1.0,
                        "size" : 96.0,
                        "tracking" : 0.0,
                        "name" : "Montserrat",
                        "weight" : "Regular"
                      },
                      "textAttributes" : {
                        "type" : "textAttributeList",
                        "keyframes" : [
                          {
                            "endTime" : 0,
                            "time" : 0,
                            "value" : [{"name":"fontItalic","rangeEnd":41,"rangeStart":0,"value":0,"valueType":"int"},{"name":"fontWeight","rangeEnd":41,"rangeStart":0,"value":400,"valueType":"int"},{"name":"underline","rangeEnd":41,"rangeStart":0,"value":0,"valueType":"int"},{"name":"strikethrough","rangeEnd":41,"rangeStart":0,"value":0,"valueType":"int"},{"name":"fgColor","rangeEnd":41,"rangeStart":0,"value":"(255,0,0,255)","valueType":"color"},{"name":"fontName","rangeEnd":41,"rangeStart":0,"value":"Montserrat","valueType":"string"},{"name":"fontSize","rangeEnd":41,"rangeStart":0,"value":56,"valueType":"double"}],
                            "duration" : 0
                          }
                        ]
                      }
                    },
                    "attributes" : {
                      "autoRotateText" : true
                    },
                    "parameters" : {
                      "translation0" : 0.160156249921783,
                      "translation1" : 115.443359374999
                    },
                    "effects" : [
                        {
                          "effectName" : "DropShadow",
                          "category" : "categoryVisualEffects",
                          "parameters" : {
                            "angle" : -0.785398163397448,
                            "blur" : 10.0,
                            "color-alpha" : 1.0,
                            "color-blue" : 0.0,
                            "color-green" : 0.0,
                            "color-red" : 0.0,
                            "enabled" : 1,
                            "offset" : 10.0,
                            "opacity" : 0.4
                          }
                        },
                        {
                          "_type" : "GenericBehaviorEffect",
                          "effectName" : "reveal",
                          "start" : 0,
                          "duration" : 150                        ,
                          "in" : {
                            "attributes" : {
                              "name" : "reveal",
                              "type" : 1,
                              "characterOrder" : 7,
                              "offsetBetweenCharacters" : "3/2",
                              "suggestedDurationPerCharacter" : 22,
                              "overlapProportion" : 0,
                              "movement" : 16,
                              "springDamping" : 5.0,
                              "springStiffness" : 50.0,
                              "bounceBounciness" : 0.45
                            },
                            "parameters" : {
                              "direction" : {
                                "type" : "int",
                                "valueBounds" : {
                                  "minValue" : 0,
                                  "maxValue" : 3,
                                  "defaultValue" : 0
                                },
                                "uiHints" : {
                                  "userInterfaceType" : 2,
                                  "unitType" : 0
                                },
                                "keyframes" : [
                                  {
                                    "endTime" : 0,
                                    "time" : 0,
                                    "value" : 0,
                                    "duration" : 0
                                  }
                                ]
                              }
                            }
                          
                          },
                          "center" : {
                            "attributes" : {
                              "name" : "reveal",
                              "type" : 1,
                              "characterOrder" : 2,
                              "offsetBetweenCharacters" : "51/10",
                              "secondsPerLoop" : "233/100",
                              "numberOfLoops" : -1,
                              "delayBetweenLoops" : 15,
                              "offsetBetweenCharacters" : "51/10"
                            },
                            "parameters" : {
                              "movement" : {
                                "type" : "int",
                                "valueBounds" : {
                                  "minValue" : 0,
                                  "maxValue" : 31,
                                  "defaultValue" : 0
                                },
                                "uiHints" : {
                                  "userInterfaceType" : 4,
                                  "unitType" : 0
                                },
                                "keyframes" : [
                                  {
                                    "endTime" : 0,
                                    "time" : 0,
                                    "value" : 0,
                                    "duration" : 0
                                  }
                                ]
                              },
                              "opacity" : {
                                "type" : "double",
                                "defaultValue" : 0.45,
                                "interp" : "linr",
                                "valueBounds" : {
                                  "minValue" : 0.0,
                                  "maxValue" : 1.0,
                                  "defaultValue" : 0.45
                                },
                                "uiHints" : {
                                  "userInterfaceType" : 1,
                                  "unitType" : 1
                                }
                              }
                            }
                          
                          },
                          "out" : {
                            "attributes" : {
                              "name" : "none",
                              "type" : 1,
                              "characterOrder" : 6,
                              "offsetBetweenCharacters" : 0,
                              "suggestedDurationPerCharacter" : 0,
                              "overlapProportion" : 0,
                              "movement" : -1,
                              "springDamping" : 5.0,
                              "springStiffness" : 50.0,
                              "bounceBounciness" : 0.45
                            }
                          
                          }
                        }
                    ],
                    "start" : 1972,
                    "duration" : 150,
                    "mediaStart" : 0,
                    "mediaDuration" : 150,
                    "scalar" : 1,
                    "metadata" : {
                      "clipSpeedAttribute" : false,
                      "default-scale" : "1",
                      "default-text" : "{\\rtf1\\ansi\\ansicpg1252\\cocoartf2512\n\\cocoatextscaling0\\cocoaplatform0{\\fonttbl\\f0\\fnil\\fcharset0 Montserrat-Regular;}\n{\\colortbl;\\red255\\green255\\blue255;\\red255\\green255\\blue255;}\n{\\*\\expandedcolortbl;;\\cssrgb\\c100000\\c100000\\c100000;}\n\\pard\\tx560\\tx1120\\tx1680\\tx2240\\tx2800\\tx3360\\tx3920\\tx4480\\tx5040\\tx5600\\tx6160\\tx6720\\pardirnatural\\qc\\partightenfactor0\n\n\\f0\\fs192 \\cf2 \\ulnone 1 Minute from Template tp GCode }",
                      "effectApplied" : "reveal"
                    },
                    "animationTracks" : {

                    }
                  }
                ]
              },
              {
                "trackIndex" : 5,
                "medias" : [
                  {
                    "id" : 10,
                    "_type" : "StitchedMedia",
                    "minMediaStart" : 0,
                    "attributes" : {
                      "ident" : "Aufn . 4",
                      "gain" : 1.0,
                      "mixToMono" : false
                    },
                    "parameters" : {
                      "cursorOpacity" : 1.0,
                      "cursorScale" : 1.0
                    },
                    "medias" : [
                        {
                          "id" : 11,
                          "_type" : "ScreenVMFile",
                          "src" : 1,
                          "trackNumber" : 0,
                          "attributes" : {
                            "ident" : "Aufn . 4"
                          },
                          "parameters" : {
                            "cursorScale" : {
                              "type" : "double",
                              "defaultValue" : 0.0,
                              "interp" : "linr"
                            },
                            "cursorOpacity" : {
                              "type" : "double",
                              "defaultValue" : 0.0,
                              "interp" : "linr"
                            }
                          },
                          "effects" : [

                          ],
                          "start" : 0,
                          "duration" : 673,
                          "mediaStart" : 0,
                          "mediaDuration" : 673,
                          "scalar" : 1,
                          "metadata" : {
                            "clipSpeedAttribute" : false,
                            "default-scale" : "1",
                            "effectApplied" : "none"
                          },
                          "animationTracks" : {

                          }
                        },
                        {
                          "id" : 12,
                          "_type" : "ScreenVMFile",
                          "src" : 1,
                          "trackNumber" : 0,
                          "attributes" : {
                            "ident" : "Aufn . 4"
                          },
                          "parameters" : {
                            "cursorScale" : {
                              "type" : "double",
                              "defaultValue" : 0.0,
                              "interp" : "linr"
                            },
                            "cursorOpacity" : {
                              "type" : "double",
                              "defaultValue" : 0.0,
                              "interp" : "linr"
                            }
                          },
                          "effects" : [

                          ],
                          "start" : 673,
                          "duration" : 506,
                          "mediaStart" : 1081,
                          "mediaDuration" : 506,
                          "scalar" : 1,
                          "metadata" : {
                            "clipSpeedAttribute" : false,
                            "default-scale" : "1",
                            "effectApplied" : "none"
                          },
                          "animationTracks" : {

                          }
                        },
                        {
                          "id" : 13,
                          "_type" : "ScreenVMFile",
                          "src" : 1,
                          "trackNumber" : 0,
                          "attributes" : {
                            "ident" : "Aufn . 4"
                          },
                          "parameters" : {
                            "cursorScale" : {
                              "type" : "double",
                              "defaultValue" : 0.0,
                              "interp" : "linr"
                            },
                            "cursorOpacity" : {
                              "type" : "double",
                              "defaultValue" : 0.0,
                              "interp" : "linr"
                            }
                          },
                          "effects" : [

                          ],
                          "start" : 1179,
                          "duration" : 1218,
                          "mediaStart" : 2079,
                          "mediaDuration" : 1218,
                          "scalar" : 1,
                          "metadata" : {
                            "clipSpeedAttribute" : false,
                            "default-scale" : "1",
                            "effectApplied" : "none"
                          },
                          "animationTracks" : {

                          }
                        }
                    ],
                    "effects" : [

                    ],
                    "start" : 117,
                    "duration" : 1839,
                    "mediaStart" : 0,
                    "mediaDuration" : 1839,
                    "scalar" : 1,
                    "metadata" : {
                      "clipSpeedAttribute" : false,
                      "default-scale" : "1",
                      "effectApplied" : "none"
                    },
                    "animationTracks" : {

                    }
                  }
                ],
                "transitions" : [
                  {
                    "name" : "Ripple",
                    "duration" : 30,
                    "trivial" : false,
                    "useAudioPreRoll" : false,
                    "useVisualPreRoll" : true,
                    "rightMedia" : 10
                  }
                ]
              },
              {
                "trackIndex" : 6,
                "medias" : [
                  {
                    "id" : 14,
                    "_type" : "AMFile",
                    "src" : 3,
                    "trackNumber" : 0,
                    "attributes" : {
                      "ident" : "Aufn . 5",
                      "sampleRate" : 44100,
                      "bitDepth" : 16,
                      "gain" : 1.0,
                      "mixToMono" : false
                    },
                      "channelNumber" : "0,1",
                    "effects" : [

                    ],
                    "start" : 0,
                    "duration" : 2184,
                    "mediaStart" : 0,
                    "mediaDuration" : 2184,
                    "scalar" : 1,
                    "metadata" : {
                      "clipSpeedAttribute" : false,
                      "effectApplied" : "none"
                    },
                    "animationTracks" : {

                    }
                  }
                ]
              }
            ]
          }
        }
      ]
    },
    "trackAttributes" : [
      {
        "ident" : "",
        "audioMuted" : false,
        "videoHidden" : false,
        "metadata" : {
          "IsLocked" : "False",
          "trackHeight" : "48"
        }
      },
      {
        "ident" : "",
        "audioMuted" : false,
        "videoHidden" : false,
        "metadata" : {
          "IsLocked" : "False",
          "trackHeight" : "48"
        }
      },
      {
        "ident" : "",
        "audioMuted" : false,
        "videoHidden" : false,
        "metadata" : {
          "IsLocked" : "False",
          "trackHeight" : "48"
        }
      },
      {
        "ident" : "",
        "audioMuted" : false,
        "videoHidden" : false,
        "metadata" : {
          "IsLocked" : "False",
          "trackHeight" : "48"
        }
      },
      {
        "ident" : "",
        "audioMuted" : false,
        "videoHidden" : false,
        "metadata" : {
          "IsLocked" : "False",
          "trackHeight" : "48"
        }
      },
      {
        "ident" : "",
        "audioMuted" : false,
        "videoHidden" : false,
        "metadata" : {
          "IsLocked" : "False",
          "trackHeight" : "48"
        }
      },
      {
        "ident" : "",
        "audioMuted" : false,
        "videoHidden" : false,
        "metadata" : {
          "IsLocked" : "False",
          "trackHeight" : "48"
        }
      }
    ],
    "captionAttributes" : {
      "enabled" : true,
      "fontName" : "Arial",
      "fontSize" : 32,
      "backgroundColor" : [ 0, 0, 0, 204],
      "foregroundColor" : [ 255, 255, 255, 255],
      "lang" : "de",
      "alignment" : 0,
      "defaultFontSize" : true,
      "opacity" : 0.5,
      "backgroundEnabled" : true,
      "backgroundOnlyAroundText" : true
    },
    "backgroundColor" : [ 0, 0, 0, 255],
    "metadata" : {
      "RecordingHeight" : "1004",
      "RecordingWidth" : "1600"
    }
  },
  "metadata" : {
    "activeThemeId" : "e59eeb42-ccf0-4a36-bdf9-e630fdab686d",
    "firstMedia" : true,
    "hasNotifiedAboutHFRMedia" : false
  }
}
